<?xml version="1.0" encoding="utf-8"?>
<!-- Generator: Adobe Illustrator 24.0.0, SVG Export Plug-In . SVG Version: 6.00 Build 0)  -->
<svg version="1.1" id="Layer_1" xmlns="http://www.w3.org/2000/svg" xmlns:xlink="http://www.w3.org/1999/xlink" x="0px" y="0px"
	 viewBox="0 0 699.5 474" style="enable-background:new 0 0 699.5 474;" xml:space="preserve">
<style type="text/css">
	.st0{fill-rule:evenodd;clip-rule:evenodd;fill-opacity:0.1076;}
	.st1{fill-rule:evenodd;clip-rule:evenodd;fill:#0E9453;}
	.st2{fill-rule:evenodd;clip-rule:evenodd;fill:#085631;}
	.st3{fill-rule:evenodd;clip-rule:evenodd;fill-opacity:0;}
	.st4{fill-rule:evenodd;clip-rule:evenodd;fill:#666666;}
</style>
<path class="st0" d="M226.2,142.3L226.2,142.3c55.3-81.1,165.9-102,247-46.7l0,0c39,26.6,65.8,67.5,74.5,113.8s-1.2,94.2-27.8,133.2
	l0,0c-55.3,81.1-165.9,102-247,46.7l0,0C191.8,334.1,170.9,223.5,226.2,142.3z M273.4,174.5L273.4,174.5
	c-37.5,55.1-23.3,130.1,31.7,167.7c55.1,37.5,130.1,23.3,167.7-31.7l0,0c37.5-55.1,23.3-130.1-31.7-167.7l0,0
	C386,105.3,310.9,119.5,273.4,174.5z"/>
<g>
	<g transform="matrix(1.0 0.0 0.0 1.0 0.0 1.0)">
		<g id="g6ba47551c5_1_0.1">
			<path class="st1" d="M481.8,89L481.8,89c-69.4-48.9-163-45.3-228.4,8.8l21.6,26.1l0,0c53.7-44.4,130.4-47.3,187.3-7.3L481.8,89z"
				/>
		</g>
	</g>
</g>
<g id="g6ba47551c5_1_0.1_1_">
	<path class="st1" d="M481.8,88L481.8,88c-69.4-48.9-163-45.3-228.4,8.8l21.6,26.1l0,0c53.7-44.4,130.4-47.3,187.3-7.3L481.8,88z"/>
</g>
<g>
	<g transform="matrix(1.0 0.0 0.0 1.0 0.0 1.0)">
		<g id="g6ba47551c5_1_0.2">
			<path class="st2" d="M485.7,91.9L485.7,91.9c82.6,61.6,100.3,178.2,39.8,261.7l-27.8-20.2l0,0c49.5-68.2,35-163.5-32.5-214
				L485.7,91.9z"/>
		</g>
	</g>
</g>
<g id="g6ba47551c5_1_0.2_1_">
	<path class="st2" d="M485.7,90.9L485.7,90.9c82.6,61.6,100.3,178.2,39.8,261.7l-27.8-20.2l0,0c49.5-68.2,35-163.5-32.5-214
		L485.7,90.9z"/>
</g>
<g>
	<g transform="matrix(1.0 0.0 0.0 1.0 1.0 0.0)">
		<g id="g6ba47551c5_1_0.3">
			<path class="st2" d="M265.5,395.5L265.5,395.5c-75-52.5-101.4-151.5-62.4-234.4l32.2,15.1l0,0c-31.6,67.2-10.2,147.5,50.6,190.1
				L265.5,395.5z"/>
		</g>
	</g>
</g>
<g id="g6ba47551c5_1_0.3_1_">
	<path class="st2" d="M264.5,395.5L264.5,395.5c-75-52.5-101.4-151.5-62.4-234.4l32.2,15.1l0,0c-31.6,67.2-10.2,147.5,50.6,190.1
		L264.5,395.5z"/>
</g>
<g>
	<g transform="matrix(1.0 0.0 0.0 1.0 0.0 1.0)">
		<g id="g6ba47551c5_1_0.4">
			<path class="st1" d="M265.8,397.6L265.8,397.6c81.2,56.5,192.3,40.5,254.3-36.6l-27.2-21.9l0,0c-50.5,62.8-141,75.8-207.1,29.8
				L265.8,397.6z"/>
		</g>
	</g>
</g>
<g id="g6ba47551c5_1_0.4_1_">
	<path class="st1" d="M265.8,396.6L265.8,396.6c81.2,56.5,192.3,40.5,254.3-36.6l-27.2-21.9l0,0c-50.5,62.8-141,75.8-207.1,29.8
		L265.8,396.6z"/>
</g>
<path class="st2" d="M236,141l9.4,50L186,150.4L236,141z"/>
<path class="st2" d="M493.4,367.4l-9.4-50l59.4,40.5L493.4,367.4z"/>
<path class="st1" d="M247.6,361.8l50-9.4L257,411.7L247.6,361.8z"/>
<path class="st1" d="M499.1,120.6l-50,9.4l40.5-59.4L499.1,120.6z"/>
<path class="st3" d="M46.3,86h90.1v38.8H46.3V86z"/>
<path d="M94.5,105.2c0,1.4-0.2,2.6-0.5,3.6c-0.4,1-0.9,1.8-1.6,2.4c-0.7,0.6-1.5,1.1-2.5,1.4c-1,0.3-2.1,0.4-3.5,0.4h-3.6
	c-0.2,0-0.5-0.1-0.6-0.2c-0.2-0.2-0.3-0.4-0.3-0.8V98.8c0-0.3,0.1-0.6,0.3-0.8c0.2-0.2,0.4-0.2,0.6-0.2h3.9c1.4,0,2.5,0.2,3.4,0.5
	c0.9,0.3,1.7,0.8,2.4,1.4c0.6,0.6,1.1,1.4,1.5,2.3C94.3,103,94.5,104,94.5,105.2z M91.3,105.3c0-0.7-0.1-1.4-0.2-2
	c-0.2-0.6-0.4-1.1-0.8-1.6c-0.4-0.5-0.8-0.8-1.4-1.1c-0.6-0.3-1.3-0.4-2.3-0.4H85v10.3h1.6c0.8,0,1.6-0.1,2.1-0.3
	c0.6-0.2,1.1-0.5,1.5-1c0.4-0.4,0.7-1,0.9-1.7C91.2,107,91.3,106.2,91.3,105.3z M105.8,112.7c0,0.1,0,0.2-0.1,0.2
	c-0.1,0.1-0.2,0.1-0.4,0.1c-0.2,0-0.4,0-0.7,0c-0.4,0-0.6,0-0.8,0c-0.2,0-0.3-0.1-0.3-0.1s-0.1-0.1-0.1-0.2v-0.8
	c-0.4,0.5-0.9,0.8-1.5,1.1c-0.5,0.2-1.2,0.4-1.8,0.4c-0.6,0-1.1-0.1-1.5-0.2c-0.5-0.1-0.9-0.4-1.2-0.6s-0.6-0.6-0.8-1
	c-0.2-0.4-0.3-0.9-0.3-1.5c0-0.6,0.1-1.1,0.4-1.6c0.2-0.4,0.6-0.8,1.1-1.1c0.5-0.3,1.1-0.5,1.8-0.6c0.7-0.1,1.5-0.2,2.5-0.2h1v-0.6
	c0-0.3,0-0.6-0.1-0.9s-0.2-0.5-0.3-0.6c-0.2-0.2-0.4-0.3-0.6-0.4c-0.2-0.1-0.6-0.1-0.9-0.1c-0.5,0-0.9,0.1-1.3,0.2
	c-0.4,0.1-0.7,0.2-1,0.4c-0.3,0.1-0.5,0.2-0.7,0.4c-0.2,0.1-0.4,0.2-0.5,0.2c-0.1,0-0.2,0-0.2-0.1c-0.1-0.1-0.1-0.1-0.2-0.2
	c0-0.1-0.1-0.2-0.1-0.4c0-0.1,0-0.3,0-0.5c0-0.2,0-0.4,0.1-0.6c0-0.1,0.1-0.3,0.2-0.4c0.1-0.1,0.3-0.2,0.6-0.4
	c0.3-0.1,0.6-0.3,1-0.4c0.4-0.1,0.8-0.2,1.2-0.3c0.4-0.1,0.9-0.1,1.3-0.1c0.8,0,1.5,0.1,2.1,0.2c0.6,0.2,1.1,0.4,1.4,0.7
	s0.6,0.8,0.8,1.3c0.2,0.5,0.3,1.1,0.3,1.9V112.7z M102.9,108.2h-1.1c-0.5,0-0.9,0-1.2,0.1c-0.3,0.1-0.6,0.2-0.8,0.3
	c-0.2,0.1-0.4,0.3-0.5,0.5c-0.1,0.2-0.1,0.4-0.1,0.7c0,0.4,0.1,0.8,0.4,1c0.3,0.2,0.7,0.4,1.2,0.4c0.4,0,0.8-0.1,1.1-0.3
	c0.4-0.2,0.7-0.5,1.1-0.9V108.2z M114.9,111.6c0,0.3,0,0.6-0.1,0.8c0,0.2-0.1,0.3-0.2,0.4c-0.1,0.1-0.2,0.1-0.3,0.2
	c-0.1,0.1-0.3,0.1-0.5,0.1c-0.2,0.1-0.4,0.1-0.6,0.1c-0.2,0-0.4,0-0.6,0c-0.6,0-1.1-0.1-1.5-0.2c-0.4-0.1-0.8-0.4-1.1-0.7
	c-0.3-0.3-0.5-0.7-0.6-1.2c-0.1-0.5-0.2-1-0.2-1.7v-5.4H108c-0.2,0-0.3-0.1-0.4-0.3c-0.1-0.2-0.1-0.5-0.1-0.9c0-0.2,0-0.4,0-0.6
	c0-0.2,0.1-0.3,0.1-0.4c0-0.1,0.1-0.2,0.1-0.2c0.1,0,0.1-0.1,0.2-0.1h1.2v-2.3c0-0.1,0-0.2,0.1-0.2c0-0.1,0.1-0.1,0.2-0.2
	c0.1,0,0.3-0.1,0.5-0.1c0.2,0,0.4,0,0.7,0s0.5,0,0.7,0c0.2,0,0.3,0.1,0.5,0.1c0.1,0,0.2,0.1,0.2,0.2c0.1,0.1,0.1,0.1,0.1,0.2v2.3
	h2.3c0.1,0,0.1,0,0.2,0.1c0.1,0,0.1,0.1,0.2,0.2c0,0.1,0.1,0.2,0.1,0.4c0,0.2,0,0.3,0,0.6c0,0.4,0,0.8-0.1,0.9
	c-0.1,0.2-0.2,0.3-0.3,0.3h-2.3v4.9c0,0.6,0.1,1,0.3,1.3c0.2,0.3,0.5,0.4,1,0.4c0.2,0,0.3,0,0.4,0s0.2-0.1,0.3-0.1
	c0.1,0,0.2-0.1,0.2-0.1s0.1,0,0.2,0c0,0,0.1,0,0.1,0c0,0,0.1,0.1,0.1,0.2c0,0.1,0.1,0.2,0.1,0.3
	C114.9,111.2,114.9,111.4,114.9,111.6z M125.9,112.7c0,0.1,0,0.2-0.1,0.2c-0.1,0.1-0.2,0.1-0.4,0.1c-0.2,0-0.4,0-0.7,0
	c-0.4,0-0.6,0-0.8,0c-0.2,0-0.3-0.1-0.3-0.1s-0.1-0.1-0.1-0.2v-0.8c-0.4,0.5-0.9,0.8-1.5,1.1c-0.5,0.2-1.2,0.4-1.8,0.4
	c-0.6,0-1.1-0.1-1.5-0.2c-0.5-0.1-0.9-0.4-1.2-0.6s-0.6-0.6-0.8-1c-0.2-0.4-0.3-0.9-0.3-1.5c0-0.6,0.1-1.1,0.4-1.6
	c0.2-0.4,0.6-0.8,1.1-1.1c0.5-0.3,1.1-0.5,1.8-0.6c0.7-0.1,1.5-0.2,2.5-0.2h1v-0.6c0-0.3,0-0.6-0.1-0.9s-0.2-0.5-0.3-0.6
	c-0.2-0.2-0.4-0.3-0.6-0.4c-0.2-0.1-0.6-0.1-0.9-0.1c-0.5,0-0.9,0.1-1.3,0.2c-0.4,0.1-0.7,0.2-1,0.4c-0.3,0.1-0.5,0.2-0.7,0.4
	c-0.2,0.1-0.4,0.2-0.5,0.2c-0.1,0-0.2,0-0.2-0.1c-0.1-0.1-0.1-0.1-0.2-0.2c0-0.1-0.1-0.2-0.1-0.4c0-0.1,0-0.3,0-0.5
	c0-0.2,0-0.4,0.1-0.6c0-0.1,0.1-0.3,0.2-0.4c0.1-0.1,0.3-0.2,0.6-0.4c0.3-0.1,0.6-0.3,1-0.4c0.4-0.1,0.8-0.2,1.2-0.3
	c0.4-0.1,0.9-0.1,1.3-0.1c0.8,0,1.5,0.1,2.1,0.2c0.6,0.2,1.1,0.4,1.4,0.7s0.6,0.8,0.8,1.3c0.2,0.5,0.3,1.1,0.3,1.9V112.7z
	 M123,108.2h-1.1c-0.5,0-0.9,0-1.2,0.1c-0.3,0.1-0.6,0.2-0.8,0.3c-0.2,0.1-0.4,0.3-0.5,0.5c-0.1,0.2-0.1,0.4-0.1,0.7
	c0,0.4,0.1,0.8,0.4,1c0.3,0.2,0.7,0.4,1.2,0.4c0.4,0,0.8-0.1,1.1-0.3c0.4-0.2,0.7-0.5,1.1-0.9V108.2z"/>
<path class="st4" d="M143.3,93h65.4V80.7l24.7,24.7l-24.7,24.7v-12.3h-65.4V93z"/>
<path class="st3" d="M321.8,0h164.6v49.4H321.8V0z"/>
<path class="st3" d="M274.1,6.5h179.7v38.8H274.1V6.5z"/>
<path d="M334.4,38.1c0,0.1,0,0.1-0.1,0.2s-0.1,0.1-0.2,0.2c-0.1,0-0.3,0.1-0.5,0.1c-0.2,0-0.4,0-0.8,0s-0.6,0-0.8,0
	c-0.2,0-0.4-0.1-0.5-0.1c-0.1,0-0.2-0.1-0.2-0.2s-0.1-0.1-0.1-0.2V23.8c0-0.1,0-0.1,0.1-0.2s0.1-0.1,0.2-0.2c0.1,0,0.3-0.1,0.5-0.1
	c0.2,0,0.4,0,0.8,0s0.6,0,0.8,0c0.2,0,0.4,0.1,0.5,0.1c0.1,0,0.2,0.1,0.2,0.2s0.1,0.1,0.1,0.2V38.1z M354.2,38.1
	c0,0.1,0,0.2-0.1,0.2c0,0.1-0.1,0.1-0.2,0.1c-0.1,0-0.2,0.1-0.4,0.1c-0.2,0-0.4,0-0.7,0s-0.5,0-0.7,0c-0.2,0-0.3-0.1-0.5-0.1
	c-0.1,0-0.2-0.1-0.2-0.1c0-0.1-0.1-0.1-0.1-0.2v-6.2c0-0.4,0-0.7-0.1-1c-0.1-0.3-0.2-0.5-0.3-0.7c-0.1-0.2-0.3-0.4-0.5-0.5
	c-0.2-0.1-0.5-0.2-0.8-0.2c-0.4,0-0.7,0.1-1.1,0.4c-0.4,0.3-0.7,0.7-1.2,1.2v6.9c0,0.1,0,0.2-0.1,0.2c0,0.1-0.1,0.1-0.2,0.1
	c-0.1,0-0.3,0.1-0.5,0.1c-0.2,0-0.4,0-0.7,0c-0.3,0-0.5,0-0.7,0c-0.2,0-0.3-0.1-0.5-0.1c-0.1,0-0.2-0.1-0.2-0.1
	c0-0.1-0.1-0.1-0.1-0.2v-6.2c0-0.4,0-0.7-0.1-1c-0.1-0.3-0.2-0.5-0.3-0.7c-0.1-0.2-0.3-0.4-0.5-0.5c-0.2-0.1-0.5-0.2-0.7-0.2
	c-0.4,0-0.7,0.1-1.1,0.4c-0.4,0.3-0.7,0.7-1.1,1.2v6.9c0,0.1,0,0.2-0.1,0.2c0,0.1-0.1,0.1-0.2,0.1c-0.1,0-0.3,0.1-0.5,0.1
	c-0.2,0-0.4,0-0.7,0s-0.5,0-0.7,0c-0.2,0-0.3-0.1-0.5-0.1c-0.1,0-0.2-0.1-0.2-0.1c0-0.1-0.1-0.1-0.1-0.2V27.7c0-0.1,0-0.1,0-0.2
	c0-0.1,0.1-0.1,0.2-0.2c0.1,0,0.2-0.1,0.4-0.1c0.2,0,0.4,0,0.6,0s0.5,0,0.6,0c0.2,0,0.3,0.1,0.4,0.1c0.1,0,0.2,0.1,0.2,0.2
	c0,0.1,0.1,0.1,0.1,0.2v1.2c0.6-0.6,1.1-1.1,1.7-1.4c0.6-0.3,1.2-0.5,1.8-0.5c0.4,0,0.8,0,1.2,0.1c0.3,0.1,0.7,0.2,0.9,0.4
	c0.3,0.2,0.5,0.4,0.7,0.6c0.2,0.2,0.4,0.5,0.5,0.8c0.3-0.3,0.6-0.6,0.9-0.9c0.3-0.2,0.6-0.4,0.9-0.6c0.3-0.2,0.6-0.3,0.9-0.3
	c0.3-0.1,0.6-0.1,0.9-0.1c0.7,0,1.3,0.1,1.8,0.4c0.5,0.2,0.9,0.5,1.2,1c0.3,0.4,0.5,0.9,0.6,1.4c0.1,0.5,0.2,1.1,0.2,1.7V38.1z
	 M367.6,32.8c0,0.9-0.1,1.8-0.3,2.5s-0.5,1.4-0.9,1.9c-0.4,0.5-0.9,0.9-1.4,1.2c-0.6,0.3-1.2,0.4-2,0.4c-0.3,0-0.6,0-0.8-0.1
	c-0.2-0.1-0.5-0.1-0.7-0.2c-0.2-0.1-0.5-0.3-0.7-0.5c-0.2-0.2-0.5-0.4-0.7-0.6v4.9c0,0.1,0,0.2-0.1,0.2c0,0.1-0.1,0.1-0.2,0.2
	c-0.1,0-0.3,0.1-0.5,0.1c-0.2,0-0.4,0-0.7,0s-0.5,0-0.7,0c-0.2,0-0.3-0.1-0.5-0.1c-0.1,0-0.2-0.1-0.2-0.2c0-0.1-0.1-0.1-0.1-0.2
	V27.7c0-0.1,0-0.1,0-0.2c0-0.1,0.1-0.1,0.2-0.2c0.1,0,0.2-0.1,0.4-0.1c0.2,0,0.4,0,0.6,0c0.2,0,0.4,0,0.6,0c0.2,0,0.3,0.1,0.4,0.1
	c0.1,0,0.2,0.1,0.2,0.2c0,0.1,0.1,0.1,0.1,0.2v1.2c0.3-0.3,0.6-0.6,0.9-0.8c0.3-0.2,0.6-0.4,0.9-0.6s0.6-0.3,0.9-0.3
	c0.3-0.1,0.7-0.1,1-0.1c0.8,0,1.4,0.2,2,0.5c0.5,0.3,1,0.7,1.3,1.2c0.3,0.5,0.6,1.1,0.8,1.8C367.5,31.2,367.6,32,367.6,32.8z
	 M364.5,33c0-0.4,0-0.9-0.1-1.3c-0.1-0.4-0.2-0.8-0.3-1.1c-0.2-0.3-0.4-0.6-0.6-0.8c-0.3-0.2-0.6-0.3-1-0.3c-0.2,0-0.4,0-0.6,0.1
	c-0.2,0.1-0.4,0.1-0.6,0.3c-0.2,0.1-0.4,0.3-0.6,0.5c-0.2,0.2-0.4,0.5-0.7,0.8v3.5c0.4,0.5,0.8,0.9,1.2,1.2c0.4,0.3,0.8,0.4,1.2,0.4
	c0.4,0,0.7-0.1,1-0.3c0.3-0.2,0.5-0.5,0.7-0.8c0.2-0.3,0.3-0.7,0.4-1.1C364.5,33.8,364.5,33.4,364.5,33z M380.5,32.8
	c0,0.9-0.1,1.7-0.4,2.5c-0.2,0.7-0.6,1.4-1.1,1.9c-0.5,0.5-1.1,0.9-1.8,1.2c-0.7,0.3-1.6,0.4-2.5,0.4c-0.9,0-1.7-0.1-2.4-0.4
	c-0.7-0.3-1.3-0.6-1.7-1.1c-0.4-0.5-0.8-1.1-1-1.8s-0.3-1.5-0.3-2.5c0-0.9,0.1-1.7,0.4-2.5c0.2-0.7,0.6-1.4,1.1-1.9
	c0.5-0.5,1.1-0.9,1.8-1.2c0.7-0.3,1.6-0.4,2.5-0.4c0.9,0,1.8,0.1,2.4,0.4s1.3,0.6,1.7,1.1c0.4,0.5,0.8,1.1,1,1.8
	S380.5,31.9,380.5,32.8z M377.5,32.9c0-0.5,0-1-0.1-1.4c-0.1-0.4-0.2-0.8-0.4-1.1c-0.2-0.3-0.4-0.6-0.8-0.8
	c-0.3-0.2-0.7-0.3-1.2-0.3c-0.4,0-0.8,0.1-1.2,0.2c-0.3,0.2-0.6,0.4-0.8,0.7c-0.2,0.3-0.4,0.7-0.5,1.1c-0.1,0.4-0.2,0.9-0.2,1.5
	c0,0.5,0,1,0.1,1.4c0.1,0.4,0.2,0.8,0.4,1.1c0.2,0.3,0.5,0.6,0.8,0.8c0.3,0.2,0.7,0.2,1.2,0.2c0.4,0,0.8-0.1,1.2-0.2
	c0.3-0.2,0.6-0.4,0.8-0.7c0.2-0.3,0.4-0.7,0.5-1.1C377.4,34,377.5,33.5,377.5,32.9z M389.5,28.7c0,0.3,0,0.5,0,0.7
	c0,0.2,0,0.3-0.1,0.4c0,0.1-0.1,0.2-0.1,0.2c0,0-0.1,0-0.2,0c-0.1,0-0.1,0-0.2,0c-0.1,0-0.2-0.1-0.3-0.1c-0.1,0-0.2-0.1-0.3-0.1
	c-0.1,0-0.2,0-0.4,0c-0.2,0-0.3,0-0.5,0.1s-0.3,0.2-0.5,0.3c-0.2,0.1-0.4,0.3-0.5,0.6c-0.2,0.2-0.4,0.5-0.6,0.9v6.5
	c0,0.1,0,0.2-0.1,0.2c0,0.1-0.1,0.1-0.2,0.1c-0.1,0-0.3,0.1-0.5,0.1c-0.2,0-0.4,0-0.7,0s-0.5,0-0.7,0c-0.2,0-0.3-0.1-0.5-0.1
	c-0.1,0-0.2-0.1-0.2-0.1c0-0.1-0.1-0.1-0.1-0.2V27.7c0-0.1,0-0.1,0-0.2c0-0.1,0.1-0.1,0.2-0.2c0.1,0,0.2-0.1,0.4-0.1
	c0.2,0,0.4,0,0.6,0s0.5,0,0.6,0c0.2,0,0.3,0.1,0.4,0.1c0.1,0,0.2,0.1,0.2,0.2c0,0.1,0.1,0.1,0.1,0.2V29c0.3-0.4,0.5-0.7,0.8-1
	c0.2-0.3,0.5-0.5,0.7-0.6c0.2-0.1,0.4-0.2,0.7-0.3c0.2-0.1,0.4-0.1,0.7-0.1c0.1,0,0.2,0,0.3,0c0.1,0,0.2,0,0.4,0.1
	c0.1,0,0.2,0.1,0.3,0.1c0.1,0,0.2,0.1,0.2,0.1c0,0,0.1,0.1,0.1,0.1c0,0,0,0.1,0,0.2c0,0.1,0,0.2,0,0.4
	C389.5,28.2,389.5,28.4,389.5,28.7z M397.6,37.1c0,0.3,0,0.6-0.1,0.8c0,0.2-0.1,0.3-0.2,0.4c-0.1,0.1-0.2,0.1-0.3,0.2
	c-0.1,0.1-0.3,0.1-0.5,0.1c-0.2,0.1-0.4,0.1-0.6,0.1c-0.2,0-0.4,0-0.6,0c-0.6,0-1.1-0.1-1.5-0.2c-0.4-0.1-0.8-0.4-1.1-0.7
	c-0.3-0.3-0.5-0.7-0.6-1.2c-0.1-0.5-0.2-1-0.2-1.7v-5.4h-1.2c-0.2,0-0.3-0.1-0.4-0.3c-0.1-0.2-0.1-0.5-0.1-0.9c0-0.2,0-0.4,0-0.6
	s0.1-0.3,0.1-0.4s0.1-0.2,0.1-0.2c0.1,0,0.1-0.1,0.2-0.1h1.2V25c0-0.1,0-0.2,0.1-0.2s0.1-0.1,0.2-0.2c0.1,0,0.3-0.1,0.5-0.1
	c0.2,0,0.4,0,0.7,0s0.5,0,0.7,0c0.2,0,0.3,0.1,0.5,0.1c0.1,0,0.2,0.1,0.2,0.2c0.1,0.1,0.1,0.1,0.1,0.2v2.3h2.3c0.1,0,0.1,0,0.2,0.1
	c0.1,0,0.1,0.1,0.2,0.2s0.1,0.2,0.1,0.4s0,0.3,0,0.6c0,0.4,0,0.8-0.1,0.9c-0.1,0.2-0.2,0.3-0.3,0.3h-2.3v4.9c0,0.6,0.1,1,0.3,1.3
	c0.2,0.3,0.5,0.4,1,0.4c0.2,0,0.3,0,0.4,0s0.2-0.1,0.3-0.1c0.1,0,0.2-0.1,0.2-0.1s0.1,0,0.2,0c0,0,0.1,0,0.1,0s0.1,0.1,0.1,0.2
	c0,0.1,0.1,0.2,0.1,0.3C397.6,36.7,397.6,36.9,397.6,37.1z"/>
<path class="st3" d="M574.3,217.2h125.2v38.8H574.3V217.2z"/>
<path d="M597.3,248c0.1,0.3,0.2,0.5,0.2,0.7c0,0.2,0,0.3-0.1,0.4c-0.1,0.1-0.2,0.1-0.5,0.2c-0.2,0-0.5,0-0.9,0c-0.4,0-0.7,0-0.9,0
	c-0.2,0-0.4,0-0.5-0.1c-0.1,0-0.2-0.1-0.2-0.2c0-0.1-0.1-0.1-0.1-0.2l-1-3h-5.7l-1,3c0,0.1-0.1,0.2-0.1,0.3c0,0.1-0.1,0.1-0.2,0.2
	c-0.1,0-0.3,0.1-0.5,0.1c-0.2,0-0.5,0-0.8,0c-0.4,0-0.7,0-0.9,0c-0.2,0-0.3-0.1-0.4-0.2c-0.1-0.1-0.1-0.2-0.1-0.4
	c0-0.2,0.1-0.4,0.2-0.7l4.7-13.5c0.1-0.1,0.1-0.2,0.2-0.3c0.1-0.1,0.2-0.1,0.3-0.2c0.1,0,0.3-0.1,0.6-0.1c0.2,0,0.6,0,1,0
	c0.5,0,0.8,0,1.1,0c0.3,0,0.5,0,0.6,0.1c0.2,0,0.3,0.1,0.3,0.2c0.1,0.1,0.1,0.2,0.2,0.3L597.3,248z M590.4,236.9L590.4,236.9
	l-2.2,6.4h4.3L590.4,236.9z M609.3,248.8c0,0.1,0,0.2-0.1,0.2c0,0.1-0.1,0.1-0.2,0.1c-0.1,0-0.3,0.1-0.5,0.1c-0.2,0-0.4,0-0.7,0
	c-0.3,0-0.5,0-0.7,0c-0.2,0-0.3-0.1-0.5-0.1c-0.1,0-0.2-0.1-0.2-0.1c0-0.1-0.1-0.1-0.1-0.2v-6c0-0.5,0-0.9-0.1-1.2
	c-0.1-0.3-0.2-0.5-0.3-0.7c-0.1-0.2-0.3-0.4-0.5-0.5c-0.2-0.1-0.5-0.2-0.8-0.2c-0.4,0-0.8,0.1-1.1,0.4c-0.4,0.3-0.8,0.7-1.2,1.2v6.9
	c0,0.1,0,0.2-0.1,0.2c0,0.1-0.1,0.1-0.2,0.1c-0.1,0-0.3,0.1-0.5,0.1c-0.2,0-0.4,0-0.7,0c-0.3,0-0.5,0-0.7,0c-0.2,0-0.3-0.1-0.5-0.1
	c-0.1,0-0.2-0.1-0.2-0.1c0-0.1-0.1-0.1-0.1-0.2v-10.5c0-0.1,0-0.1,0-0.2c0-0.1,0.1-0.1,0.2-0.2c0.1,0,0.2-0.1,0.4-0.1
	c0.2,0,0.4,0,0.6,0s0.5,0,0.6,0c0.2,0,0.3,0.1,0.4,0.1c0.1,0,0.2,0.1,0.2,0.2c0,0.1,0.1,0.1,0.1,0.2v1.2c0.6-0.6,1.2-1.1,1.8-1.4
	c0.6-0.3,1.2-0.5,1.9-0.5c0.7,0,1.3,0.1,1.8,0.4c0.5,0.2,0.9,0.5,1.2,1c0.3,0.4,0.5,0.9,0.7,1.4c0.1,0.5,0.2,1.2,0.2,1.9V248.8z
	 M621.1,248.8c0,0.1,0,0.2-0.1,0.2c-0.1,0.1-0.2,0.1-0.4,0.1c-0.2,0-0.4,0-0.7,0c-0.4,0-0.6,0-0.8,0c-0.2,0-0.3-0.1-0.3-0.1
	s-0.1-0.1-0.1-0.2V248c-0.4,0.5-0.9,0.8-1.5,1.1c-0.5,0.2-1.2,0.4-1.8,0.4c-0.6,0-1.1-0.1-1.5-0.2c-0.5-0.1-0.9-0.4-1.2-0.6
	s-0.6-0.6-0.8-1c-0.2-0.4-0.3-0.9-0.3-1.5c0-0.6,0.1-1.1,0.4-1.6c0.2-0.4,0.6-0.8,1.1-1.1c0.5-0.3,1.1-0.5,1.8-0.6
	c0.7-0.1,1.5-0.2,2.5-0.2h1v-0.6c0-0.3,0-0.6-0.1-0.9s-0.2-0.5-0.3-0.6c-0.2-0.2-0.4-0.3-0.6-0.4c-0.2-0.1-0.6-0.1-0.9-0.1
	c-0.5,0-0.9,0.1-1.3,0.2c-0.4,0.1-0.7,0.2-1,0.4c-0.3,0.1-0.5,0.2-0.7,0.4c-0.2,0.1-0.4,0.2-0.5,0.2c-0.1,0-0.2,0-0.2-0.1
	c-0.1-0.1-0.1-0.1-0.2-0.2c0-0.1-0.1-0.2-0.1-0.4c0-0.1,0-0.3,0-0.5c0-0.2,0-0.4,0.1-0.6c0-0.1,0.1-0.3,0.2-0.4
	c0.1-0.1,0.3-0.2,0.6-0.4c0.3-0.1,0.6-0.3,1-0.4c0.4-0.1,0.8-0.2,1.2-0.3c0.4-0.1,0.9-0.1,1.3-0.1c0.8,0,1.5,0.1,2.1,0.2
	c0.6,0.2,1.1,0.4,1.4,0.7c0.4,0.3,0.6,0.8,0.8,1.3c0.2,0.5,0.3,1.1,0.3,1.9V248.8z M618.2,244.4H617c-0.5,0-0.9,0-1.2,0.1
	c-0.3,0.1-0.6,0.2-0.8,0.3c-0.2,0.1-0.4,0.3-0.5,0.5c-0.1,0.2-0.1,0.4-0.1,0.7c0,0.4,0.1,0.8,0.4,1c0.3,0.2,0.7,0.4,1.2,0.4
	c0.4,0,0.8-0.1,1.1-0.3c0.4-0.2,0.7-0.5,1.1-0.9V244.4z M627,248.8c0,0.1,0,0.2-0.1,0.2c0,0.1-0.1,0.1-0.2,0.1
	c-0.1,0-0.3,0.1-0.5,0.1c-0.2,0-0.4,0-0.7,0c-0.3,0-0.5,0-0.7,0c-0.2,0-0.3-0.1-0.5-0.1c-0.1,0-0.2-0.1-0.2-0.1
	c0-0.1-0.1-0.1-0.1-0.2v-15.4c0-0.1,0-0.1,0.1-0.2c0.1-0.1,0.1-0.1,0.2-0.2c0.1-0.1,0.3-0.1,0.5-0.1c0.2,0,0.4,0,0.7,0
	c0.3,0,0.5,0,0.7,0c0.2,0,0.3,0.1,0.5,0.1c0.1,0,0.2,0.1,0.2,0.2c0.1,0.1,0.1,0.1,0.1,0.2V248.8z M636,249.2l-1.3,3.7
	c-0.1,0.2-0.2,0.3-0.6,0.4c-0.3,0.1-0.8,0.1-1.4,0.1c-0.3,0-0.6,0-0.8,0c-0.2,0-0.3-0.1-0.4-0.1s-0.1-0.1-0.2-0.2
	c0-0.1,0-0.2,0.1-0.3l1.4-3.5c-0.1-0.1-0.2-0.1-0.3-0.2c-0.1-0.1-0.1-0.2-0.2-0.3l-3.6-9.6c-0.1-0.3-0.1-0.5-0.1-0.6
	c0-0.1,0-0.3,0.1-0.3c0.1-0.1,0.2-0.1,0.5-0.2s0.5,0,0.9,0c0.3,0,0.6,0,0.8,0c0.2,0,0.3,0,0.5,0.1c0.1,0,0.2,0.1,0.2,0.2
	c0.1,0.1,0.1,0.2,0.2,0.4l2.5,7h0l2.2-7.1c0-0.2,0.1-0.3,0.2-0.4c0.1-0.1,0.2-0.1,0.4-0.2c0.2,0,0.5,0,0.9,0c0.3,0,0.6,0,0.8,0
	c0.2,0,0.4,0.1,0.5,0.2c0.1,0.1,0.2,0.2,0.2,0.3c0,0.1,0,0.3-0.1,0.5L636,249.2z M648.6,248c0,0.2,0,0.4,0,0.6
	c0,0.2-0.1,0.3-0.1,0.4c0,0.1-0.1,0.2-0.1,0.2c-0.1,0-0.1,0-0.2,0h-6.8c-0.2,0-0.4-0.1-0.5-0.2c-0.1-0.1-0.2-0.4-0.2-0.7v-0.5
	c0-0.1,0-0.3,0-0.4c0-0.1,0-0.2,0.1-0.3c0-0.1,0.1-0.2,0.1-0.3c0.1-0.1,0.1-0.2,0.2-0.4l3.9-6h-3.7c-0.2,0-0.3-0.1-0.4-0.3
	c-0.1-0.2-0.1-0.5-0.1-0.9c0-0.2,0-0.4,0-0.6c0-0.2,0-0.3,0.1-0.4c0-0.1,0.1-0.2,0.2-0.2c0.1,0,0.1-0.1,0.2-0.1h6.4
	c0.1,0,0.2,0,0.3,0c0.1,0,0.2,0.1,0.2,0.1c0.1,0.1,0.1,0.2,0.1,0.3c0,0.1,0,0.2,0,0.4v0.6c0,0.2,0,0.3,0,0.4c0,0.1,0,0.2-0.1,0.3
	c0,0.1-0.1,0.2-0.1,0.3c-0.1,0.1-0.1,0.2-0.2,0.3l-3.9,6h4.1c0.1,0,0.1,0,0.2,0s0.1,0.1,0.2,0.2c0,0.1,0.1,0.2,0.1,0.4
	C648.6,247.6,648.6,247.8,648.6,248z M660.5,243.3c0,0.4-0.1,0.6-0.2,0.8c-0.2,0.2-0.4,0.2-0.7,0.2h-6.4c0,0.4,0.1,0.9,0.2,1.2
	c0.1,0.4,0.3,0.7,0.5,0.9c0.2,0.2,0.5,0.4,0.9,0.6c0.4,0.1,0.8,0.2,1.3,0.2c0.5,0,1,0,1.3-0.1c0.4-0.1,0.7-0.2,1-0.2
	c0.3-0.1,0.5-0.2,0.7-0.2c0.2-0.1,0.3-0.1,0.5-0.1c0.1,0,0.1,0,0.2,0c0.1,0,0.1,0.1,0.1,0.1c0,0.1,0.1,0.2,0.1,0.3
	c0,0.1,0,0.3,0,0.5c0,0.2,0,0.3,0,0.5c0,0.1,0,0.2,0,0.3c0,0.1,0,0.2-0.1,0.2s-0.1,0.1-0.1,0.2c-0.1,0.1-0.2,0.1-0.4,0.2
	c-0.2,0.1-0.5,0.2-0.9,0.3c-0.3,0.1-0.7,0.2-1.2,0.2c-0.4,0.1-0.9,0.1-1.5,0.1c-0.9,0-1.7-0.1-2.4-0.3c-0.7-0.2-1.3-0.6-1.8-1.1
	c-0.5-0.5-0.8-1.1-1-1.8c-0.2-0.7-0.3-1.6-0.3-2.6c0-0.9,0.1-1.8,0.4-2.5c0.2-0.8,0.6-1.4,1-1.9c0.5-0.5,1-0.9,1.7-1.2
	c0.7-0.3,1.4-0.4,2.2-0.4c0.9,0,1.6,0.1,2.2,0.4c0.6,0.2,1.1,0.6,1.5,1.1c0.4,0.5,0.7,1,0.9,1.6s0.3,1.3,0.3,2V243.3z M657.6,242.4
	c0-0.8-0.1-1.5-0.5-1.9c-0.4-0.5-0.9-0.7-1.7-0.7c-0.4,0-0.7,0.1-1,0.2c-0.3,0.1-0.5,0.3-0.7,0.6c-0.2,0.2-0.3,0.5-0.4,0.8
	c-0.1,0.3-0.1,0.7-0.2,1H657.6z"/>
<path class="st3" d="M285.3,435.2H465V474H285.3V435.2z"/>
<path d="M340.5,466.7c0,0.1-0.1,0.2-0.2,0.3c-0.1,0.1-0.2,0.1-0.3,0.2c-0.1,0-0.3,0.1-0.6,0.1c-0.2,0-0.6,0-1,0c-0.3,0-0.6,0-0.8,0
	c-0.2,0-0.4,0-0.6,0c-0.2,0-0.3,0-0.4-0.1s-0.2-0.1-0.2-0.1c-0.1-0.1-0.1-0.1-0.2-0.2c0-0.1-0.1-0.2-0.1-0.3l-4.5-13.4
	c-0.1-0.3-0.2-0.5-0.2-0.7c0-0.2,0-0.3,0.1-0.4c0.1-0.1,0.3-0.1,0.5-0.2c0.2,0,0.6,0,1,0c0.4,0,0.6,0,0.8,0c0.2,0,0.4,0,0.5,0.1
	c0.1,0,0.2,0.1,0.2,0.2c0.1,0.1,0.1,0.2,0.1,0.3l3.7,11.7l0,0l3.6-11.6c0-0.1,0.1-0.2,0.1-0.3c0.1-0.1,0.1-0.1,0.2-0.2
	c0.1-0.1,0.3-0.1,0.5-0.1c0.2,0,0.5,0,0.9,0c0.4,0,0.6,0,0.8,0c0.2,0,0.3,0.1,0.4,0.2c0.1,0.1,0.1,0.2,0.1,0.4
	c0,0.2-0.1,0.4-0.2,0.6L340.5,466.7z M349.9,466.8c0,0.1,0,0.2-0.1,0.2c0,0.1-0.1,0.1-0.2,0.1c-0.1,0-0.3,0.1-0.5,0.1
	c-0.2,0-0.4,0-0.7,0s-0.5,0-0.7,0c-0.2,0-0.3-0.1-0.5-0.1c-0.1,0-0.2-0.1-0.2-0.1c0-0.1-0.1-0.1-0.1-0.2v-10.4c0-0.1,0-0.2,0.1-0.2
	c0.1-0.1,0.1-0.1,0.2-0.2c0.1,0,0.3-0.1,0.5-0.1c0.2,0,0.4,0,0.7,0s0.5,0,0.7,0c0.2,0,0.3,0.1,0.5,0.1c0.1,0,0.2,0.1,0.2,0.2
	c0.1,0.1,0.1,0.1,0.1,0.2V466.8z M350.1,452.8c0,0.6-0.1,1-0.4,1.2c-0.2,0.2-0.7,0.3-1.3,0.3s-1.1-0.1-1.3-0.3
	c-0.2-0.2-0.3-0.6-0.3-1.2c0-0.6,0.1-1,0.4-1.2c0.2-0.2,0.7-0.4,1.4-0.4c0.7,0,1.1,0.1,1.3,0.3C350,451.9,350.1,452.3,350.1,452.8z
	 M360.2,463.9c0,0.6-0.1,1.1-0.3,1.6c-0.2,0.4-0.5,0.8-0.9,1.1c-0.4,0.3-0.9,0.5-1.5,0.7c-0.6,0.2-1.2,0.2-1.8,0.2
	c-0.4,0-0.8,0-1.1-0.1c-0.4-0.1-0.7-0.1-1-0.2c-0.3-0.1-0.5-0.2-0.7-0.3s-0.3-0.2-0.4-0.3c-0.1-0.1-0.2-0.2-0.2-0.4
	c0-0.2-0.1-0.4-0.1-0.8c0-0.2,0-0.4,0-0.5c0-0.1,0-0.2,0.1-0.3c0-0.1,0.1-0.1,0.1-0.2c0.1,0,0.1,0,0.2,0c0.1,0,0.2,0.1,0.4,0.2
	c0.2,0.1,0.4,0.2,0.6,0.3c0.2,0.1,0.5,0.2,0.9,0.3c0.3,0.1,0.7,0.2,1.1,0.2c0.3,0,0.5,0,0.7-0.1c0.2-0.1,0.4-0.1,0.5-0.2
	c0.2-0.1,0.3-0.2,0.3-0.4c0.1-0.2,0.1-0.3,0.1-0.5c0-0.2-0.1-0.4-0.2-0.6c-0.1-0.2-0.3-0.3-0.6-0.4s-0.5-0.2-0.8-0.3
	c-0.3-0.1-0.6-0.2-0.9-0.4c-0.3-0.1-0.6-0.3-0.9-0.5c-0.3-0.2-0.6-0.4-0.8-0.6s-0.4-0.5-0.6-0.9c-0.1-0.4-0.2-0.8-0.2-1.3
	s0.1-1,0.3-1.4c0.2-0.4,0.5-0.8,0.8-1.1c0.4-0.3,0.8-0.5,1.3-0.7c0.5-0.2,1.1-0.2,1.8-0.2c0.3,0,0.6,0,1,0.1c0.3,0,0.6,0.1,0.8,0.2
	c0.2,0.1,0.5,0.1,0.6,0.2c0.2,0.1,0.3,0.2,0.4,0.2c0.1,0.1,0.1,0.1,0.2,0.2c0,0.1,0.1,0.1,0.1,0.2c0,0.1,0,0.2,0,0.3
	c0,0.1,0,0.3,0,0.5c0,0.2,0,0.4,0,0.5c0,0.1,0,0.2-0.1,0.3c0,0.1-0.1,0.1-0.1,0.2c0,0-0.1,0-0.2,0c-0.1,0-0.2,0-0.3-0.1
	c-0.1-0.1-0.3-0.2-0.5-0.3s-0.5-0.2-0.8-0.3c-0.3-0.1-0.6-0.1-1-0.1c-0.3,0-0.5,0-0.7,0.1c-0.2,0.1-0.4,0.1-0.5,0.2
	c-0.1,0.1-0.2,0.2-0.3,0.3c-0.1,0.1-0.1,0.3-0.1,0.4c0,0.2,0.1,0.5,0.2,0.6c0.2,0.2,0.4,0.3,0.6,0.4s0.5,0.2,0.8,0.4
	c0.3,0.1,0.6,0.2,0.9,0.4c0.3,0.1,0.6,0.3,0.9,0.5c0.3,0.2,0.6,0.4,0.8,0.6s0.4,0.6,0.6,0.9C360.1,463,360.2,463.4,360.2,463.9z
	 M372.3,466.8c0,0.1,0,0.2-0.1,0.2c0,0.1-0.1,0.1-0.2,0.1c-0.1,0-0.2,0.1-0.4,0.1c-0.2,0-0.4,0-0.6,0c-0.3,0-0.5,0-0.6,0
	c-0.2,0-0.3-0.1-0.4-0.1c-0.1,0-0.2-0.1-0.2-0.1c0-0.1,0-0.1,0-0.2v-1.2c-0.6,0.6-1.2,1.1-1.8,1.4s-1.2,0.5-1.9,0.5
	c-0.7,0-1.3-0.1-1.8-0.3c-0.5-0.2-0.9-0.6-1.2-1c-0.3-0.4-0.5-0.9-0.6-1.4c-0.1-0.5-0.2-1.2-0.2-2v-6.4c0-0.1,0-0.1,0.1-0.2
	c0-0.1,0.1-0.1,0.2-0.2c0.1,0,0.3-0.1,0.5-0.1c0.2,0,0.4,0,0.7,0s0.5,0,0.7,0c0.2,0,0.3,0.1,0.5,0.1c0.1,0,0.2,0.1,0.2,0.2
	c0.1,0.1,0.1,0.1,0.1,0.2v5.9c0,0.6,0,1,0.1,1.3c0.1,0.3,0.2,0.5,0.3,0.7c0.1,0.2,0.3,0.4,0.5,0.5c0.2,0.1,0.5,0.2,0.8,0.2
	c0.4,0,0.8-0.1,1.1-0.4c0.4-0.3,0.8-0.7,1.2-1.2v-7c0-0.1,0-0.1,0.1-0.2c0-0.1,0.1-0.1,0.2-0.2c0.1,0,0.3-0.1,0.5-0.1
	c0.2,0,0.4,0,0.7,0c0.3,0,0.5,0,0.7,0c0.2,0,0.3,0.1,0.4,0.1c0.1,0,0.2,0.1,0.2,0.2c0.1,0.1,0.1,0.1,0.1,0.2V466.8z M384.2,466.9
	c0,0.1,0,0.2-0.1,0.2c-0.1,0.1-0.2,0.1-0.4,0.1c-0.2,0-0.4,0-0.7,0c-0.4,0-0.6,0-0.8,0c-0.2,0-0.3-0.1-0.3-0.1s-0.1-0.1-0.1-0.2V466
	c-0.4,0.5-0.9,0.8-1.5,1.1c-0.5,0.2-1.2,0.4-1.8,0.4c-0.6,0-1.1-0.1-1.5-0.2c-0.5-0.1-0.9-0.4-1.2-0.6s-0.6-0.6-0.8-1
	c-0.2-0.4-0.3-0.9-0.3-1.5c0-0.6,0.1-1.1,0.4-1.6c0.2-0.4,0.6-0.8,1.1-1.1c0.5-0.3,1.1-0.5,1.8-0.6c0.7-0.1,1.5-0.2,2.5-0.2h1v-0.6
	c0-0.3,0-0.6-0.1-0.9s-0.2-0.5-0.3-0.6c-0.2-0.2-0.4-0.3-0.6-0.4c-0.2-0.1-0.6-0.1-0.9-0.1c-0.5,0-0.9,0.1-1.3,0.2
	c-0.4,0.1-0.7,0.2-1,0.4c-0.3,0.1-0.5,0.2-0.7,0.4c-0.2,0.1-0.4,0.2-0.5,0.2c-0.1,0-0.2,0-0.2-0.1c-0.1-0.1-0.1-0.1-0.2-0.2
	c0-0.1-0.1-0.2-0.1-0.4c0-0.1,0-0.3,0-0.5c0-0.2,0-0.4,0.1-0.6c0-0.1,0.1-0.3,0.2-0.4c0.1-0.1,0.3-0.2,0.6-0.4
	c0.3-0.1,0.6-0.3,1-0.4c0.4-0.1,0.8-0.2,1.2-0.3c0.4-0.1,0.9-0.1,1.3-0.1c0.8,0,1.5,0.1,2.1,0.2s1.1,0.4,1.4,0.7
	c0.4,0.3,0.6,0.8,0.8,1.3c0.2,0.5,0.3,1.1,0.3,1.9V466.9z M381.3,462.4h-1.1c-0.5,0-0.9,0-1.2,0.1c-0.3,0.1-0.6,0.2-0.8,0.3
	c-0.2,0.1-0.4,0.3-0.5,0.5c-0.1,0.2-0.1,0.4-0.1,0.7c0,0.4,0.1,0.8,0.4,1c0.3,0.2,0.7,0.4,1.2,0.4c0.4,0,0.8-0.1,1.1-0.3
	c0.4-0.2,0.7-0.5,1.1-0.9V462.4z M390.1,466.8c0,0.1,0,0.2-0.1,0.2c0,0.1-0.1,0.1-0.2,0.1c-0.1,0-0.3,0.1-0.5,0.1
	c-0.2,0-0.4,0-0.7,0s-0.5,0-0.7,0c-0.2,0-0.3-0.1-0.5-0.1c-0.1,0-0.2-0.1-0.2-0.1c0-0.1-0.1-0.1-0.1-0.2v-15.4c0-0.1,0-0.1,0.1-0.2
	c0.1-0.1,0.1-0.1,0.2-0.2c0.1-0.1,0.3-0.1,0.5-0.1c0.2,0,0.4,0,0.7,0s0.5,0,0.7,0c0.2,0,0.3,0.1,0.5,0.1c0.1,0,0.2,0.1,0.2,0.2
	c0.1,0.1,0.1,0.1,0.1,0.2V466.8z M396,466.8c0,0.1,0,0.2-0.1,0.2c0,0.1-0.1,0.1-0.2,0.1c-0.1,0-0.3,0.1-0.5,0.1c-0.2,0-0.4,0-0.7,0
	s-0.5,0-0.7,0c-0.2,0-0.3-0.1-0.5-0.1c-0.1,0-0.2-0.1-0.2-0.1c0-0.1-0.1-0.1-0.1-0.2v-10.4c0-0.1,0-0.2,0.1-0.2
	c0.1-0.1,0.1-0.1,0.2-0.2c0.1,0,0.3-0.1,0.5-0.1c0.2,0,0.4,0,0.7,0s0.5,0,0.7,0c0.2,0,0.3,0.1,0.5,0.1c0.1,0,0.2,0.1,0.2,0.2
	c0.1,0.1,0.1,0.1,0.1,0.2V466.8z M396.2,452.8c0,0.6-0.1,1-0.4,1.2c-0.2,0.2-0.7,0.3-1.3,0.3s-1.1-0.1-1.3-0.3
	c-0.2-0.2-0.3-0.6-0.3-1.2c0-0.6,0.1-1,0.4-1.2c0.2-0.2,0.7-0.4,1.4-0.4c0.7,0,1.1,0.1,1.3,0.3C396.1,451.9,396.2,452.3,396.2,452.8
	z M406.2,466c0,0.2,0,0.4,0,0.6c0,0.2-0.1,0.3-0.1,0.4c0,0.1-0.1,0.2-0.1,0.2c-0.1,0-0.1,0-0.2,0h-6.8c-0.2,0-0.4-0.1-0.5-0.2
	c-0.1-0.1-0.2-0.4-0.2-0.7v-0.5c0-0.1,0-0.3,0-0.4c0-0.1,0-0.2,0.1-0.3c0-0.1,0.1-0.2,0.1-0.3c0.1-0.1,0.1-0.2,0.2-0.4l3.9-6h-3.7
	c-0.2,0-0.3-0.1-0.4-0.3c-0.1-0.2-0.1-0.5-0.1-0.9c0-0.2,0-0.4,0-0.6c0-0.2,0-0.3,0.1-0.4c0-0.1,0.1-0.2,0.2-0.2
	c0.1,0,0.1-0.1,0.2-0.1h6.4c0.1,0,0.2,0,0.3,0c0.1,0,0.2,0.1,0.2,0.1s0.1,0.2,0.1,0.3c0,0.1,0,0.2,0,0.4v0.6c0,0.2,0,0.3,0,0.4
	c0,0.1,0,0.2-0.1,0.3c0,0.1-0.1,0.2-0.1,0.3c-0.1,0.1-0.1,0.2-0.2,0.3l-3.9,6h4.1c0.1,0,0.1,0,0.2,0s0.1,0.1,0.2,0.2
	c0,0.1,0.1,0.2,0.1,0.4C406.2,465.6,406.2,465.8,406.2,466z M418.1,461.3c0,0.4-0.1,0.6-0.2,0.8c-0.2,0.2-0.4,0.2-0.7,0.2h-6.4
	c0,0.4,0.1,0.9,0.2,1.2c0.1,0.4,0.3,0.7,0.5,0.9c0.2,0.2,0.5,0.4,0.9,0.6c0.4,0.1,0.8,0.2,1.3,0.2s1,0,1.3-0.1
	c0.4-0.1,0.7-0.2,1-0.2c0.3-0.1,0.5-0.2,0.7-0.2c0.2-0.1,0.3-0.1,0.5-0.1c0.1,0,0.1,0,0.2,0c0.1,0,0.1,0.1,0.1,0.1
	c0,0.1,0.1,0.2,0.1,0.3s0,0.3,0,0.5c0,0.2,0,0.3,0,0.5c0,0.1,0,0.2,0,0.3c0,0.1,0,0.2-0.1,0.2s-0.1,0.1-0.1,0.2
	c-0.1,0.1-0.2,0.1-0.4,0.2s-0.5,0.2-0.9,0.3c-0.3,0.1-0.7,0.2-1.2,0.2c-0.4,0.1-0.9,0.1-1.5,0.1c-0.9,0-1.7-0.1-2.4-0.3
	c-0.7-0.2-1.3-0.6-1.8-1.1c-0.5-0.5-0.8-1.1-1-1.8c-0.2-0.7-0.3-1.6-0.3-2.6c0-0.9,0.1-1.8,0.4-2.5c0.2-0.8,0.6-1.4,1-1.9
	c0.5-0.5,1-0.9,1.7-1.2c0.7-0.3,1.4-0.4,2.2-0.4c0.9,0,1.6,0.1,2.2,0.4c0.6,0.2,1.1,0.6,1.5,1.1c0.4,0.5,0.7,1,0.9,1.6
	s0.3,1.3,0.3,2V461.3z M415.3,460.5c0-0.8-0.1-1.5-0.5-1.9c-0.4-0.5-0.9-0.7-1.7-0.7c-0.4,0-0.7,0.1-1,0.2c-0.3,0.1-0.5,0.3-0.7,0.6
	c-0.2,0.2-0.3,0.5-0.4,0.8c-0.1,0.3-0.1,0.7-0.2,1H415.3z"/>
<path class="st3" d="M0,217.2h179.7v38.8H0L0,217.2z"/>
<path d="M32.7,246.9c0,0.2,0,0.4,0,0.5c0,0.1,0,0.3-0.1,0.4c0,0.1-0.1,0.2-0.1,0.2c0,0.1-0.1,0.1-0.2,0.2c-0.1,0.1-0.2,0.2-0.5,0.3
	c-0.2,0.1-0.5,0.3-0.9,0.4c-0.4,0.1-0.8,0.2-1.2,0.3c-0.5,0.1-1,0.1-1.5,0.1c-1,0-2-0.2-2.8-0.5c-0.8-0.3-1.5-0.8-2.1-1.4
	c-0.6-0.6-1-1.4-1.3-2.4c-0.3-1-0.5-2.1-0.5-3.3c0-1.3,0.2-2.4,0.5-3.4s0.8-1.8,1.4-2.5c0.6-0.7,1.4-1.2,2.2-1.5
	c0.9-0.4,1.8-0.5,2.8-0.5c0.4,0,0.8,0,1.2,0.1c0.4,0.1,0.8,0.2,1.1,0.3c0.3,0.1,0.6,0.2,0.9,0.4c0.3,0.1,0.5,0.3,0.6,0.4
	c0.1,0.1,0.2,0.2,0.2,0.3c0,0.1,0.1,0.2,0.1,0.3c0,0.1,0.1,0.2,0.1,0.4c0,0.1,0,0.3,0,0.5c0,0.2,0,0.4,0,0.6c0,0.2,0,0.3-0.1,0.4
	c0,0.1-0.1,0.2-0.1,0.2c-0.1,0-0.1,0.1-0.2,0.1c-0.1,0-0.3-0.1-0.4-0.2c-0.2-0.1-0.4-0.3-0.7-0.5c-0.3-0.2-0.6-0.3-1-0.5
	c-0.4-0.1-0.9-0.2-1.4-0.2c-0.6,0-1.1,0.1-1.6,0.4c-0.5,0.2-0.9,0.6-1.2,1.1c-0.3,0.4-0.6,1-0.8,1.7c-0.2,0.6-0.2,1.4-0.2,2.2
	c0,0.9,0.1,1.7,0.3,2.3s0.4,1.2,0.8,1.6c0.3,0.4,0.8,0.7,1.2,0.9c0.5,0.2,1,0.3,1.6,0.3c0.5,0,1-0.1,1.4-0.2c0.4-0.1,0.8-0.3,1-0.4
	c0.3-0.2,0.5-0.3,0.7-0.4c0.2-0.1,0.3-0.2,0.4-0.2c0.1,0,0.1,0,0.2,0c0.1,0,0.1,0.1,0.1,0.2s0.1,0.2,0.1,0.4
	C32.7,246.4,32.7,246.6,32.7,246.9z M45.3,243.5c0,0.9-0.1,1.7-0.4,2.5c-0.2,0.7-0.6,1.4-1.1,1.9c-0.5,0.5-1.1,0.9-1.8,1.2
	c-0.7,0.3-1.6,0.4-2.5,0.4c-0.9,0-1.7-0.1-2.4-0.4c-0.7-0.3-1.3-0.6-1.7-1.1c-0.4-0.5-0.8-1.1-1-1.8s-0.3-1.5-0.3-2.5
	c0-0.9,0.1-1.7,0.4-2.5c0.2-0.7,0.6-1.4,1.1-1.9c0.5-0.5,1.1-0.9,1.8-1.2c0.7-0.3,1.6-0.4,2.5-0.4c0.9,0,1.8,0.1,2.4,0.4
	s1.3,0.6,1.7,1.1c0.4,0.5,0.8,1.1,1,1.8S45.3,242.5,45.3,243.5z M42.2,243.6c0-0.5,0-1-0.1-1.4c-0.1-0.4-0.2-0.8-0.4-1.1
	c-0.2-0.3-0.4-0.6-0.8-0.8c-0.3-0.2-0.7-0.3-1.2-0.3c-0.4,0-0.8,0.1-1.2,0.2c-0.3,0.2-0.6,0.4-0.8,0.7c-0.2,0.3-0.4,0.7-0.5,1.1
	c-0.1,0.4-0.2,0.9-0.2,1.5c0,0.5,0,1,0.1,1.4c0.1,0.4,0.2,0.8,0.4,1.1c0.2,0.3,0.5,0.6,0.8,0.8c0.3,0.2,0.7,0.2,1.2,0.2
	c0.4,0,0.8-0.1,1.2-0.2c0.3-0.2,0.6-0.4,0.8-0.7c0.2-0.3,0.4-0.7,0.5-1.1C42.2,244.6,42.2,244.1,42.2,243.6z M64.2,248.8
	c0,0.1,0,0.2-0.1,0.2c0,0.1-0.1,0.1-0.2,0.1c-0.1,0-0.2,0.1-0.4,0.1c-0.2,0-0.4,0-0.7,0c-0.3,0-0.5,0-0.7,0c-0.2,0-0.3-0.1-0.5-0.1
	c-0.1,0-0.2-0.1-0.2-0.1c0-0.1-0.1-0.1-0.1-0.2v-6.2c0-0.4,0-0.7-0.1-1c-0.1-0.3-0.2-0.5-0.3-0.7c-0.1-0.2-0.3-0.4-0.5-0.5
	c-0.2-0.1-0.5-0.2-0.8-0.2c-0.4,0-0.7,0.1-1.1,0.4c-0.4,0.3-0.7,0.7-1.2,1.2v6.9c0,0.1,0,0.2-0.1,0.2c0,0.1-0.1,0.1-0.2,0.1
	c-0.1,0-0.3,0.1-0.5,0.1c-0.2,0-0.4,0-0.7,0c-0.3,0-0.5,0-0.7,0c-0.2,0-0.3-0.1-0.5-0.1c-0.1,0-0.2-0.1-0.2-0.1
	c0-0.1-0.1-0.1-0.1-0.2v-6.2c0-0.4,0-0.7-0.1-1c-0.1-0.3-0.2-0.5-0.3-0.7c-0.1-0.2-0.3-0.4-0.5-0.5c-0.2-0.1-0.5-0.2-0.7-0.2
	c-0.4,0-0.7,0.1-1.1,0.4c-0.4,0.3-0.7,0.7-1.1,1.2v6.9c0,0.1,0,0.2-0.1,0.2c0,0.1-0.1,0.1-0.2,0.1c-0.1,0-0.3,0.1-0.5,0.1
	c-0.2,0-0.4,0-0.7,0c-0.3,0-0.5,0-0.7,0c-0.2,0-0.3-0.1-0.5-0.1c-0.1,0-0.2-0.1-0.2-0.1c0-0.1-0.1-0.1-0.1-0.2v-10.5
	c0-0.1,0-0.1,0-0.2c0-0.1,0.1-0.1,0.2-0.2c0.1,0,0.2-0.1,0.4-0.1c0.2,0,0.4,0,0.6,0s0.5,0,0.6,0c0.2,0,0.3,0.1,0.4,0.1
	c0.1,0,0.2,0.1,0.2,0.2c0,0.1,0.1,0.1,0.1,0.2v1.2c0.6-0.6,1.1-1.1,1.7-1.4c0.6-0.3,1.2-0.5,1.8-0.5c0.4,0,0.8,0,1.2,0.1
	c0.3,0.1,0.7,0.2,0.9,0.4c0.3,0.2,0.5,0.4,0.7,0.6c0.2,0.2,0.4,0.5,0.5,0.8c0.3-0.3,0.6-0.6,0.9-0.9c0.3-0.2,0.6-0.4,0.9-0.6
	c0.3-0.2,0.6-0.3,0.9-0.3c0.3-0.1,0.6-0.1,0.9-0.1c0.7,0,1.3,0.1,1.8,0.4c0.5,0.2,0.9,0.5,1.2,1c0.3,0.4,0.5,0.9,0.6,1.4
	c0.1,0.5,0.2,1.1,0.2,1.7V248.8z M83.8,248.8c0,0.1,0,0.2-0.1,0.2c0,0.1-0.1,0.1-0.2,0.1c-0.1,0-0.2,0.1-0.4,0.1c-0.2,0-0.4,0-0.7,0
	c-0.3,0-0.5,0-0.7,0c-0.2,0-0.3-0.1-0.5-0.1c-0.1,0-0.2-0.1-0.2-0.1c0-0.1-0.1-0.1-0.1-0.2v-6.2c0-0.4,0-0.7-0.1-1
	c-0.1-0.3-0.2-0.5-0.3-0.7c-0.1-0.2-0.3-0.4-0.5-0.5c-0.2-0.1-0.5-0.2-0.8-0.2c-0.4,0-0.7,0.1-1.1,0.4c-0.4,0.3-0.7,0.7-1.2,1.2v6.9
	c0,0.1,0,0.2-0.1,0.2c0,0.1-0.1,0.1-0.2,0.1c-0.1,0-0.3,0.1-0.5,0.1c-0.2,0-0.4,0-0.7,0c-0.3,0-0.5,0-0.7,0c-0.2,0-0.3-0.1-0.5-0.1
	c-0.1,0-0.2-0.1-0.2-0.1c0-0.1-0.1-0.1-0.1-0.2v-6.2c0-0.4,0-0.7-0.1-1c-0.1-0.3-0.2-0.5-0.3-0.7c-0.1-0.2-0.3-0.4-0.5-0.5
	c-0.2-0.1-0.5-0.2-0.7-0.2c-0.4,0-0.7,0.1-1.1,0.4c-0.4,0.3-0.7,0.7-1.1,1.2v6.9c0,0.1,0,0.2-0.1,0.2c0,0.1-0.1,0.1-0.2,0.1
	c-0.1,0-0.3,0.1-0.5,0.1c-0.2,0-0.4,0-0.7,0c-0.3,0-0.5,0-0.7,0c-0.2,0-0.3-0.1-0.5-0.1c-0.1,0-0.2-0.1-0.2-0.1
	c0-0.1-0.1-0.1-0.1-0.2v-10.5c0-0.1,0-0.1,0-0.2c0-0.1,0.1-0.1,0.2-0.2c0.1,0,0.2-0.1,0.4-0.1c0.2,0,0.4,0,0.6,0s0.5,0,0.6,0
	c0.2,0,0.3,0.1,0.4,0.1c0.1,0,0.2,0.1,0.2,0.2c0,0.1,0.1,0.1,0.1,0.2v1.2c0.6-0.6,1.1-1.1,1.7-1.4c0.6-0.3,1.2-0.5,1.8-0.5
	c0.4,0,0.8,0,1.2,0.1c0.3,0.1,0.7,0.2,0.9,0.4c0.3,0.2,0.5,0.4,0.7,0.6c0.2,0.2,0.4,0.5,0.5,0.8c0.3-0.3,0.6-0.6,0.9-0.9
	c0.3-0.2,0.6-0.4,0.9-0.6c0.3-0.2,0.6-0.3,0.9-0.3c0.3-0.1,0.6-0.1,0.9-0.1c0.7,0,1.3,0.1,1.8,0.4c0.5,0.2,0.9,0.5,1.2,1
	c0.3,0.4,0.5,0.9,0.6,1.4c0.1,0.5,0.2,1.1,0.2,1.7V248.8z M96.6,248.8c0,0.1,0,0.2-0.1,0.2c0,0.1-0.1,0.1-0.2,0.1
	c-0.1,0-0.2,0.1-0.4,0.1c-0.2,0-0.4,0-0.6,0c-0.3,0-0.5,0-0.6,0c-0.2,0-0.3-0.1-0.4-0.1c-0.1,0-0.2-0.1-0.2-0.1c0-0.1,0-0.1,0-0.2
	v-1.2c-0.6,0.6-1.2,1.1-1.8,1.4s-1.2,0.5-1.9,0.5c-0.7,0-1.3-0.1-1.8-0.3c-0.5-0.2-0.9-0.6-1.2-1c-0.3-0.4-0.5-0.9-0.6-1.4
	c-0.1-0.5-0.2-1.2-0.2-2v-6.4c0-0.1,0-0.1,0.1-0.2c0-0.1,0.1-0.1,0.2-0.2c0.1,0,0.3-0.1,0.5-0.1c0.2,0,0.4,0,0.7,0s0.5,0,0.7,0
	c0.2,0,0.3,0.1,0.5,0.1c0.1,0,0.2,0.1,0.2,0.2c0.1,0.1,0.1,0.1,0.1,0.2v5.9c0,0.6,0,1,0.1,1.3c0.1,0.3,0.2,0.5,0.3,0.7
	c0.1,0.2,0.3,0.4,0.5,0.5c0.2,0.1,0.5,0.2,0.8,0.2c0.4,0,0.8-0.1,1.1-0.4c0.4-0.3,0.8-0.7,1.2-1.2v-7c0-0.1,0-0.1,0.1-0.2
	c0-0.1,0.1-0.1,0.2-0.2c0.1,0,0.3-0.1,0.5-0.1c0.2,0,0.4,0,0.7,0c0.3,0,0.5,0,0.7,0c0.2,0,0.3,0.1,0.4,0.1c0.1,0,0.2,0.1,0.2,0.2
	c0.1,0.1,0.1,0.1,0.1,0.2V248.8z M109.5,248.8c0,0.1,0,0.2-0.1,0.2c0,0.1-0.1,0.1-0.2,0.1c-0.1,0-0.3,0.1-0.5,0.1
	c-0.2,0-0.4,0-0.7,0c-0.3,0-0.5,0-0.7,0c-0.2,0-0.3-0.1-0.5-0.1c-0.1,0-0.2-0.1-0.2-0.1c0-0.1-0.1-0.1-0.1-0.2v-6
	c0-0.5,0-0.9-0.1-1.2c-0.1-0.3-0.2-0.5-0.3-0.7c-0.1-0.2-0.3-0.4-0.5-0.5c-0.2-0.1-0.5-0.2-0.8-0.2c-0.4,0-0.8,0.1-1.1,0.4
	c-0.4,0.3-0.8,0.7-1.2,1.2v6.9c0,0.1,0,0.2-0.1,0.2c0,0.1-0.1,0.1-0.2,0.1c-0.1,0-0.3,0.1-0.5,0.1c-0.2,0-0.4,0-0.7,0
	c-0.3,0-0.5,0-0.7,0c-0.2,0-0.3-0.1-0.5-0.1c-0.1,0-0.2-0.1-0.2-0.1c0-0.1-0.1-0.1-0.1-0.2v-10.5c0-0.1,0-0.1,0-0.2
	c0-0.1,0.1-0.1,0.2-0.2c0.1,0,0.2-0.1,0.4-0.1c0.2,0,0.4,0,0.6,0s0.5,0,0.6,0c0.2,0,0.3,0.1,0.4,0.1c0.1,0,0.2,0.1,0.2,0.2
	c0,0.1,0.1,0.1,0.1,0.2v1.2c0.6-0.6,1.2-1.1,1.8-1.4c0.6-0.3,1.2-0.5,1.9-0.5c0.7,0,1.3,0.1,1.8,0.4c0.5,0.2,0.9,0.5,1.2,1
	c0.3,0.4,0.5,0.9,0.7,1.4c0.1,0.5,0.2,1.2,0.2,1.9V248.8z M115.4,248.8c0,0.1,0,0.2-0.1,0.2c0,0.1-0.1,0.1-0.2,0.1
	c-0.1,0-0.3,0.1-0.5,0.1c-0.2,0-0.4,0-0.7,0c-0.3,0-0.5,0-0.7,0c-0.2,0-0.3-0.1-0.5-0.1c-0.1,0-0.2-0.1-0.2-0.1
	c0-0.1-0.1-0.1-0.1-0.2v-10.4c0-0.1,0-0.2,0.1-0.2c0.1-0.1,0.1-0.1,0.2-0.2c0.1,0,0.3-0.1,0.5-0.1c0.2,0,0.4,0,0.7,0
	c0.3,0,0.5,0,0.7,0c0.2,0,0.3,0.1,0.5,0.1c0.1,0,0.2,0.1,0.2,0.2c0.1,0.1,0.1,0.1,0.1,0.2V248.8z M115.6,234.8c0,0.6-0.1,1-0.4,1.2
	c-0.2,0.2-0.7,0.3-1.3,0.3s-1.1-0.1-1.3-0.3c-0.2-0.2-0.3-0.6-0.3-1.2c0-0.6,0.1-1,0.4-1.2c0.2-0.2,0.7-0.4,1.4-0.4
	c0.7,0,1.1,0.1,1.3,0.3C115.5,233.8,115.6,234.2,115.6,234.8z M126.2,247.1c0,0.2,0,0.4,0,0.5c0,0.1,0,0.2,0,0.3
	c0,0.1,0,0.2-0.1,0.2c0,0.1-0.1,0.1-0.2,0.2c-0.1,0.1-0.3,0.2-0.5,0.3c-0.2,0.1-0.5,0.2-0.8,0.3c-0.3,0.1-0.6,0.2-0.9,0.2
	s-0.7,0.1-1,0.1c-0.8,0-1.5-0.1-2.1-0.4c-0.6-0.3-1.2-0.6-1.6-1.1c-0.4-0.5-0.7-1.1-1-1.8c-0.2-0.7-0.3-1.5-0.3-2.4
	c0-1.1,0.1-2,0.4-2.7c0.3-0.8,0.6-1.4,1.1-1.9s1-0.9,1.7-1.1c0.6-0.2,1.4-0.4,2.1-0.4c0.3,0,0.6,0,0.9,0.1c0.3,0.1,0.6,0.1,0.8,0.2
	c0.3,0.1,0.5,0.2,0.7,0.3c0.2,0.1,0.4,0.2,0.4,0.3c0.1,0.1,0.1,0.2,0.2,0.2c0,0.1,0.1,0.1,0.1,0.2c0,0.1,0,0.2,0,0.3
	c0,0.1,0,0.3,0,0.5c0,0.5,0,0.8-0.1,1c-0.1,0.2-0.2,0.3-0.3,0.3c-0.1,0-0.3-0.1-0.4-0.2c-0.1-0.1-0.3-0.2-0.5-0.4
	c-0.2-0.1-0.4-0.3-0.7-0.4c-0.3-0.1-0.6-0.2-1-0.2c-0.8,0-1.3,0.3-1.8,0.9s-0.6,1.5-0.6,2.6c0,0.6,0,1.1,0.1,1.5
	c0.1,0.4,0.3,0.8,0.5,1.1c0.2,0.3,0.4,0.5,0.8,0.6c0.3,0.1,0.7,0.2,1,0.2c0.4,0,0.8-0.1,1-0.2c0.3-0.1,0.6-0.3,0.8-0.4
	c0.2-0.2,0.4-0.3,0.5-0.4c0.1-0.1,0.3-0.2,0.4-0.2c0.1,0,0.1,0,0.2,0.1c0.1,0,0.1,0.1,0.1,0.2c0,0.1,0.1,0.2,0.1,0.4
	C126.2,246.7,126.2,246.9,126.2,247.1z M137.3,248.8c0,0.1,0,0.2-0.1,0.2c-0.1,0.1-0.2,0.1-0.4,0.1c-0.2,0-0.4,0-0.7,0
	c-0.4,0-0.6,0-0.8,0c-0.2,0-0.3-0.1-0.3-0.1s-0.1-0.1-0.1-0.2V248c-0.4,0.5-0.9,0.8-1.5,1.1c-0.5,0.2-1.2,0.4-1.8,0.4
	c-0.6,0-1.1-0.1-1.5-0.2c-0.5-0.1-0.9-0.4-1.2-0.6s-0.6-0.6-0.8-1c-0.2-0.4-0.3-0.9-0.3-1.5c0-0.6,0.1-1.1,0.4-1.6
	c0.2-0.4,0.6-0.8,1.1-1.1c0.5-0.3,1.1-0.5,1.8-0.6c0.7-0.1,1.5-0.2,2.5-0.2h1v-0.6c0-0.3,0-0.6-0.1-0.9s-0.2-0.5-0.3-0.6
	c-0.2-0.2-0.4-0.3-0.6-0.4c-0.2-0.1-0.6-0.1-0.9-0.1c-0.5,0-0.9,0.1-1.3,0.2c-0.4,0.1-0.7,0.2-1,0.4c-0.3,0.1-0.5,0.2-0.7,0.4
	c-0.2,0.1-0.4,0.2-0.5,0.2c-0.1,0-0.2,0-0.2-0.1c-0.1-0.1-0.1-0.1-0.2-0.2c0-0.1-0.1-0.2-0.1-0.4c0-0.1,0-0.3,0-0.5
	c0-0.2,0-0.4,0.1-0.6c0-0.1,0.1-0.3,0.2-0.4c0.1-0.1,0.3-0.2,0.6-0.4c0.3-0.1,0.6-0.3,1-0.4c0.4-0.1,0.8-0.2,1.2-0.3
	c0.4-0.1,0.9-0.1,1.3-0.1c0.8,0,1.5,0.1,2.1,0.2s1.1,0.4,1.4,0.7c0.4,0.3,0.6,0.8,0.8,1.3c0.2,0.5,0.3,1.1,0.3,1.9V248.8z
	 M134.4,244.4h-1.1c-0.5,0-0.9,0-1.2,0.1c-0.3,0.1-0.6,0.2-0.8,0.3c-0.2,0.1-0.4,0.3-0.5,0.5c-0.1,0.2-0.1,0.4-0.1,0.7
	c0,0.4,0.1,0.8,0.4,1c0.3,0.2,0.7,0.4,1.2,0.4c0.4,0,0.8-0.1,1.1-0.3c0.4-0.2,0.7-0.5,1.1-0.9V244.4z M146.4,247.8
	c0,0.3,0,0.6-0.1,0.8c0,0.2-0.1,0.3-0.2,0.4c-0.1,0.1-0.2,0.1-0.3,0.2c-0.1,0.1-0.3,0.1-0.5,0.1c-0.2,0.1-0.4,0.1-0.6,0.1
	c-0.2,0-0.4,0-0.6,0c-0.6,0-1.1-0.1-1.5-0.2c-0.4-0.1-0.8-0.4-1.1-0.7c-0.3-0.3-0.5-0.7-0.6-1.2c-0.1-0.5-0.2-1-0.2-1.7v-5.4h-1.2
	c-0.2,0-0.3-0.1-0.4-0.3c-0.1-0.2-0.1-0.5-0.1-0.9c0-0.2,0-0.4,0-0.6s0.1-0.3,0.1-0.4s0.1-0.2,0.1-0.2c0.1,0,0.1-0.1,0.2-0.1h1.2
	v-2.3c0-0.1,0-0.2,0.1-0.2s0.1-0.1,0.2-0.2c0.1,0,0.3-0.1,0.5-0.1c0.2,0,0.4,0,0.7,0s0.5,0,0.7,0c0.2,0,0.3,0.1,0.5,0.1
	c0.1,0,0.2,0.1,0.2,0.2c0.1,0.1,0.1,0.1,0.1,0.2v2.3h2.3c0.1,0,0.1,0,0.2,0.1c0.1,0,0.1,0.1,0.2,0.2s0.1,0.2,0.1,0.4s0,0.3,0,0.6
	c0,0.4,0,0.8-0.1,0.9c-0.1,0.2-0.2,0.3-0.3,0.3h-2.3v4.9c0,0.6,0.1,1,0.3,1.3c0.2,0.3,0.5,0.4,1,0.4c0.2,0,0.3,0,0.4,0
	s0.2-0.1,0.3-0.1c0.1,0,0.2-0.1,0.2-0.1s0.1,0,0.2,0c0,0,0.1,0,0.1,0s0.1,0.1,0.1,0.2c0,0.1,0.1,0.2,0.1,0.3
	C146.4,247.4,146.4,247.5,146.4,247.8z M158.2,243.3c0,0.4-0.1,0.6-0.2,0.8c-0.2,0.2-0.4,0.2-0.7,0.2h-6.4c0,0.4,0.1,0.9,0.2,1.2
	c0.1,0.4,0.3,0.7,0.5,0.9c0.2,0.2,0.5,0.4,0.9,0.6c0.4,0.1,0.8,0.2,1.3,0.2s1,0,1.3-0.1c0.4-0.1,0.7-0.2,1-0.2
	c0.3-0.1,0.5-0.2,0.7-0.2c0.2-0.1,0.3-0.1,0.5-0.1c0.1,0,0.1,0,0.2,0c0.1,0,0.1,0.1,0.1,0.1c0,0.1,0.1,0.2,0.1,0.3s0,0.3,0,0.5
	c0,0.2,0,0.3,0,0.5c0,0.1,0,0.2,0,0.3c0,0.1,0,0.2-0.1,0.2s-0.1,0.1-0.1,0.2c-0.1,0.1-0.2,0.1-0.4,0.2s-0.5,0.2-0.9,0.3
	c-0.3,0.1-0.7,0.2-1.2,0.2c-0.4,0.1-0.9,0.1-1.5,0.1c-0.9,0-1.7-0.1-2.4-0.3c-0.7-0.2-1.3-0.6-1.8-1.1c-0.5-0.5-0.8-1.1-1-1.8
	c-0.2-0.7-0.3-1.6-0.3-2.6c0-0.9,0.1-1.8,0.4-2.5c0.2-0.8,0.6-1.4,1-1.9c0.5-0.5,1-0.9,1.7-1.2c0.7-0.3,1.4-0.4,2.2-0.4
	c0.9,0,1.6,0.1,2.2,0.4c0.6,0.2,1.1,0.6,1.5,1.1c0.4,0.5,0.7,1,0.9,1.6s0.3,1.3,0.3,2V243.3z M155.3,242.4c0-0.8-0.1-1.5-0.5-1.9
	c-0.4-0.5-0.9-0.7-1.7-0.7c-0.4,0-0.7,0.1-1,0.2c-0.3,0.1-0.5,0.3-0.7,0.6c-0.2,0.2-0.3,0.5-0.4,0.8c-0.1,0.3-0.1,0.7-0.2,1H155.3z"
	/>
<path class="st3" d="M310.6,193.2h143.1V308H310.6V193.2z"/>
<path d="M347.8,220.7c0,0.8-0.2,1.5-0.5,2.1c-0.3,0.6-0.7,1.1-1.2,1.5c-0.5,0.4-1.1,0.7-1.8,0.9c-0.7,0.2-1.4,0.3-2.2,0.3
	c-0.5,0-1,0-1.5-0.1c-0.4-0.1-0.8-0.2-1.2-0.3c-0.3-0.1-0.6-0.2-0.9-0.4c-0.2-0.1-0.4-0.3-0.5-0.4c-0.1-0.1-0.2-0.2-0.2-0.4
	c0-0.2-0.1-0.5-0.1-0.8c0-0.2,0-0.4,0-0.6c0-0.2,0-0.3,0.1-0.4c0-0.1,0.1-0.2,0.1-0.2c0.1,0,0.1-0.1,0.2-0.1c0.1,0,0.3,0.1,0.5,0.2
	c0.2,0.1,0.5,0.3,0.8,0.4c0.3,0.2,0.7,0.3,1.1,0.4c0.4,0.1,0.9,0.2,1.5,0.2c0.4,0,0.7,0,1-0.1c0.3-0.1,0.6-0.2,0.8-0.4
	c0.2-0.2,0.4-0.4,0.5-0.6c0.1-0.2,0.2-0.5,0.2-0.8c0-0.3-0.1-0.6-0.3-0.9c-0.2-0.2-0.4-0.5-0.7-0.7c-0.3-0.2-0.6-0.4-1-0.5
	c-0.4-0.2-0.8-0.3-1.2-0.5c-0.4-0.2-0.8-0.4-1.2-0.6c-0.4-0.2-0.7-0.5-1-0.8c-0.3-0.3-0.5-0.7-0.7-1.2c-0.2-0.5-0.3-1-0.3-1.6
	c0-0.7,0.1-1.4,0.4-1.9c0.3-0.6,0.6-1,1.1-1.4c0.5-0.4,1-0.6,1.6-0.8c0.6-0.2,1.3-0.3,2-0.3c0.4,0,0.7,0,1.1,0.1
	c0.4,0.1,0.7,0.1,1,0.2c0.3,0.1,0.6,0.2,0.8,0.3c0.2,0.1,0.4,0.2,0.5,0.3c0.1,0.1,0.1,0.1,0.2,0.2c0,0.1,0.1,0.1,0.1,0.2
	c0,0.1,0,0.2,0,0.3c0,0.1,0,0.3,0,0.5c0,0.2,0,0.4,0,0.6c0,0.2,0,0.3-0.1,0.4c0,0.1-0.1,0.2-0.1,0.2c0,0-0.1,0.1-0.2,0.1
	c-0.1,0-0.2-0.1-0.4-0.2c-0.2-0.1-0.4-0.2-0.7-0.4c-0.3-0.1-0.6-0.3-1-0.4c-0.4-0.1-0.8-0.2-1.2-0.2c-0.3,0-0.6,0-0.9,0.1
	c-0.3,0.1-0.5,0.2-0.6,0.3c-0.2,0.1-0.3,0.3-0.4,0.5c-0.1,0.2-0.1,0.4-0.1,0.6c0,0.3,0.1,0.6,0.3,0.9c0.2,0.2,0.4,0.5,0.8,0.7
	c0.3,0.2,0.7,0.4,1,0.5c0.4,0.2,0.8,0.3,1.2,0.5c0.4,0.2,0.8,0.4,1.2,0.6c0.4,0.2,0.7,0.5,1,0.8c0.3,0.3,0.5,0.7,0.7,1.2
	C347.7,219.5,347.8,220,347.8,220.7z M357.9,223.1c0,0.2,0,0.4,0,0.5c0,0.1,0,0.2,0,0.3c0,0.1,0,0.2-0.1,0.2c0,0.1-0.1,0.1-0.2,0.2
	c-0.1,0.1-0.3,0.2-0.5,0.3c-0.2,0.1-0.5,0.2-0.8,0.3c-0.3,0.1-0.6,0.2-0.9,0.2c-0.3,0.1-0.7,0.1-1,0.1c-0.8,0-1.5-0.1-2.1-0.4
	c-0.6-0.3-1.2-0.6-1.6-1.1c-0.4-0.5-0.7-1.1-1-1.8c-0.2-0.7-0.3-1.5-0.3-2.4c0-1.1,0.1-2,0.4-2.7c0.3-0.8,0.6-1.4,1.1-1.9
	c0.5-0.5,1-0.9,1.7-1.1c0.6-0.2,1.4-0.4,2.1-0.4c0.3,0,0.6,0,0.9,0.1c0.3,0.1,0.6,0.1,0.8,0.2c0.3,0.1,0.5,0.2,0.7,0.3
	c0.2,0.1,0.4,0.2,0.4,0.3c0.1,0.1,0.1,0.2,0.2,0.2c0,0.1,0.1,0.1,0.1,0.2c0,0.1,0,0.2,0,0.3c0,0.1,0,0.3,0,0.5c0,0.5,0,0.8-0.1,1
	c-0.1,0.2-0.2,0.3-0.3,0.3c-0.1,0-0.3-0.1-0.4-0.2c-0.1-0.1-0.3-0.2-0.5-0.4c-0.2-0.1-0.4-0.3-0.7-0.4c-0.3-0.1-0.6-0.2-1-0.2
	c-0.8,0-1.3,0.3-1.8,0.9c-0.4,0.6-0.6,1.5-0.6,2.6c0,0.6,0,1.1,0.1,1.5c0.1,0.4,0.3,0.8,0.5,1.1c0.2,0.3,0.4,0.5,0.8,0.6
	c0.3,0.1,0.7,0.2,1,0.2c0.4,0,0.8-0.1,1-0.2c0.3-0.1,0.6-0.3,0.8-0.4c0.2-0.2,0.4-0.3,0.5-0.4c0.1-0.1,0.3-0.2,0.4-0.2
	c0.1,0,0.1,0,0.2,0.1c0.1,0,0.1,0.1,0.1,0.2c0,0.1,0.1,0.2,0.1,0.4C357.9,222.7,357.9,222.9,357.9,223.1z M363,224.8
	c0,0.1,0,0.2-0.1,0.2c0,0.1-0.1,0.1-0.2,0.1c-0.1,0-0.3,0.1-0.5,0.1c-0.2,0-0.4,0-0.7,0c-0.3,0-0.5,0-0.7,0c-0.2,0-0.3-0.1-0.5-0.1
	c-0.1,0-0.2-0.1-0.2-0.1c0-0.1-0.1-0.1-0.1-0.2v-10.4c0-0.1,0-0.2,0.1-0.2c0.1-0.1,0.1-0.1,0.2-0.2c0.1,0,0.3-0.1,0.5-0.1
	c0.2,0,0.4,0,0.7,0c0.3,0,0.5,0,0.7,0c0.2,0,0.3,0.1,0.5,0.1c0.1,0,0.2,0.1,0.2,0.2c0.1,0.1,0.1,0.1,0.1,0.2V224.8z M363.2,210.8
	c0,0.6-0.1,1-0.4,1.2c-0.2,0.2-0.7,0.3-1.3,0.3c-0.7,0-1.1-0.1-1.3-0.3c-0.2-0.2-0.3-0.6-0.3-1.2c0-0.6,0.1-1,0.4-1.2
	c0.2-0.2,0.7-0.4,1.4-0.4c0.7,0,1.1,0.1,1.3,0.3C363.1,209.8,363.2,210.2,363.2,210.8z M375.6,219.3c0,0.4-0.1,0.6-0.2,0.8
	c-0.2,0.2-0.4,0.2-0.7,0.2h-6.4c0,0.4,0.1,0.9,0.2,1.2c0.1,0.4,0.3,0.7,0.5,0.9c0.2,0.2,0.5,0.4,0.9,0.6c0.4,0.1,0.8,0.2,1.3,0.2
	c0.5,0,1,0,1.3-0.1c0.4-0.1,0.7-0.2,1-0.2c0.3-0.1,0.5-0.2,0.7-0.2c0.2-0.1,0.3-0.1,0.5-0.1c0.1,0,0.1,0,0.2,0
	c0.1,0,0.1,0.1,0.1,0.1c0,0.1,0.1,0.2,0.1,0.3c0,0.1,0,0.3,0,0.5c0,0.2,0,0.3,0,0.5c0,0.1,0,0.2,0,0.3c0,0.1,0,0.2-0.1,0.2
	c0,0.1-0.1,0.1-0.1,0.2c-0.1,0.1-0.2,0.1-0.4,0.2c-0.2,0.1-0.5,0.2-0.9,0.3c-0.3,0.1-0.7,0.2-1.2,0.2c-0.4,0.1-0.9,0.1-1.5,0.1
	c-0.9,0-1.7-0.1-2.4-0.3c-0.7-0.2-1.3-0.6-1.8-1.1c-0.5-0.5-0.8-1.1-1-1.8c-0.2-0.7-0.3-1.6-0.3-2.6c0-0.9,0.1-1.8,0.4-2.5
	c0.2-0.8,0.6-1.4,1-1.9c0.5-0.5,1-0.9,1.7-1.2c0.7-0.3,1.4-0.4,2.2-0.4c0.9,0,1.6,0.1,2.2,0.4c0.6,0.2,1.1,0.6,1.5,1.1
	c0.4,0.5,0.7,1,0.9,1.6c0.2,0.6,0.3,1.3,0.3,2V219.3z M372.7,218.4c0-0.8-0.1-1.5-0.5-1.9c-0.4-0.5-0.9-0.7-1.7-0.7
	c-0.4,0-0.7,0.1-1,0.2c-0.3,0.1-0.5,0.3-0.7,0.6c-0.2,0.2-0.3,0.5-0.4,0.8c-0.1,0.3-0.1,0.7-0.2,1H372.7z M388,224.8
	c0,0.1,0,0.2-0.1,0.2c0,0.1-0.1,0.1-0.2,0.1c-0.1,0-0.3,0.1-0.5,0.1c-0.2,0-0.4,0-0.7,0c-0.3,0-0.5,0-0.7,0c-0.2,0-0.3-0.1-0.5-0.1
	c-0.1,0-0.2-0.1-0.2-0.1c0-0.1-0.1-0.1-0.1-0.2v-6c0-0.5,0-0.9-0.1-1.2c-0.1-0.3-0.2-0.5-0.3-0.7c-0.1-0.2-0.3-0.4-0.5-0.5
	c-0.2-0.1-0.5-0.2-0.8-0.2c-0.4,0-0.8,0.1-1.1,0.4c-0.4,0.3-0.8,0.7-1.2,1.2v6.9c0,0.1,0,0.2-0.1,0.2c0,0.1-0.1,0.1-0.2,0.1
	c-0.1,0-0.3,0.1-0.5,0.1c-0.2,0-0.4,0-0.7,0c-0.3,0-0.5,0-0.7,0c-0.2,0-0.3-0.1-0.5-0.1c-0.1,0-0.2-0.1-0.2-0.1
	c0-0.1-0.1-0.1-0.1-0.2v-10.5c0-0.1,0-0.1,0-0.2c0-0.1,0.1-0.1,0.2-0.2c0.1,0,0.2-0.1,0.4-0.1c0.2,0,0.4,0,0.6,0c0.2,0,0.5,0,0.6,0
	c0.2,0,0.3,0.1,0.4,0.1c0.1,0,0.2,0.1,0.2,0.2c0,0.1,0.1,0.1,0.1,0.2v1.2c0.6-0.6,1.2-1.1,1.8-1.4c0.6-0.3,1.2-0.5,1.9-0.5
	c0.7,0,1.3,0.1,1.8,0.4c0.5,0.2,0.9,0.5,1.2,1c0.3,0.4,0.5,0.9,0.7,1.4c0.1,0.5,0.2,1.2,0.2,1.9V224.8z M397.1,223.8
	c0,0.3,0,0.6-0.1,0.8c0,0.2-0.1,0.3-0.2,0.4c-0.1,0.1-0.2,0.1-0.3,0.2c-0.1,0.1-0.3,0.1-0.5,0.1c-0.2,0.1-0.4,0.1-0.6,0.1
	c-0.2,0-0.4,0-0.6,0c-0.6,0-1.1-0.1-1.5-0.2c-0.4-0.1-0.8-0.4-1.1-0.7c-0.3-0.3-0.5-0.7-0.6-1.2c-0.1-0.5-0.2-1-0.2-1.7v-5.4h-1.2
	c-0.2,0-0.3-0.1-0.4-0.3c-0.1-0.2-0.1-0.5-0.1-0.9c0-0.2,0-0.4,0-0.6c0-0.2,0.1-0.3,0.1-0.4c0-0.1,0.1-0.2,0.1-0.2
	c0.1,0,0.1-0.1,0.2-0.1h1.2v-2.3c0-0.1,0-0.2,0.1-0.2c0-0.1,0.1-0.1,0.2-0.2c0.1,0,0.3-0.1,0.5-0.1c0.2,0,0.4,0,0.7,0s0.5,0,0.7,0
	c0.2,0,0.3,0.1,0.5,0.1c0.1,0,0.2,0.1,0.2,0.2c0.1,0.1,0.1,0.1,0.1,0.2v2.3h2.3c0.1,0,0.1,0,0.2,0.1c0.1,0,0.1,0.1,0.2,0.2
	c0,0.1,0.1,0.2,0.1,0.4c0,0.2,0,0.3,0,0.6c0,0.4,0,0.8-0.1,0.9c-0.1,0.2-0.2,0.3-0.3,0.3h-2.3v4.9c0,0.6,0.1,1,0.3,1.3
	c0.2,0.3,0.5,0.4,1,0.4c0.2,0,0.3,0,0.4,0s0.2-0.1,0.3-0.1c0.1,0,0.2-0.1,0.2-0.1s0.1,0,0.2,0c0,0,0.1,0,0.1,0c0,0,0.1,0.1,0.1,0.2
	c0,0.1,0.1,0.2,0.1,0.3C397.1,223.4,397.1,223.5,397.1,223.8z M402.2,224.8c0,0.1,0,0.2-0.1,0.2c0,0.1-0.1,0.1-0.2,0.1
	c-0.1,0-0.3,0.1-0.5,0.1c-0.2,0-0.4,0-0.7,0c-0.3,0-0.5,0-0.7,0c-0.2,0-0.3-0.1-0.5-0.1c-0.1,0-0.2-0.1-0.2-0.1
	c0-0.1-0.1-0.1-0.1-0.2v-10.4c0-0.1,0-0.2,0.1-0.2c0.1-0.1,0.1-0.1,0.2-0.2c0.1,0,0.3-0.1,0.5-0.1c0.2,0,0.4,0,0.7,0
	c0.3,0,0.5,0,0.7,0c0.2,0,0.3,0.1,0.5,0.1c0.1,0,0.2,0.1,0.2,0.2c0.1,0.1,0.1,0.1,0.1,0.2V224.8z M402.4,210.8c0,0.6-0.1,1-0.4,1.2
	c-0.2,0.2-0.7,0.3-1.3,0.3s-1.1-0.1-1.3-0.3c-0.2-0.2-0.3-0.6-0.3-1.2c0-0.6,0.1-1,0.4-1.2c0.2-0.2,0.7-0.4,1.4-0.4
	c0.7,0,1.1,0.1,1.3,0.3C402.3,209.8,402.4,210.2,402.4,210.8z M411.4,210.4c0,0.2,0,0.4,0,0.5c0,0.1,0,0.2-0.1,0.3
	c0,0.1-0.1,0.1-0.1,0.2c0,0-0.1,0-0.1,0c-0.1,0-0.1,0-0.2,0c-0.1,0-0.1-0.1-0.2-0.1c-0.1,0-0.2-0.1-0.3-0.1c-0.1,0-0.3,0-0.5,0
	c-0.2,0-0.4,0-0.6,0.1c-0.1,0.1-0.3,0.2-0.4,0.3c-0.1,0.1-0.2,0.3-0.2,0.6c0,0.2-0.1,0.5-0.1,0.8v1h1.9c0.1,0,0.1,0,0.2,0.1
	c0.1,0,0.1,0.1,0.1,0.2c0,0.1,0.1,0.2,0.1,0.4c0,0.2,0,0.3,0,0.6c0,0.4,0,0.8-0.1,0.9c-0.1,0.2-0.2,0.3-0.3,0.3h-1.9v8.5
	c0,0.1,0,0.2-0.1,0.2c0,0.1-0.1,0.1-0.2,0.1c-0.1,0-0.3,0.1-0.5,0.1c-0.2,0-0.4,0-0.7,0s-0.5,0-0.7,0c-0.2,0-0.3-0.1-0.5-0.1
	c-0.1,0-0.2-0.1-0.2-0.1c0-0.1-0.1-0.1-0.1-0.2v-8.5h-1.3c-0.1,0-0.3-0.1-0.3-0.3c-0.1-0.2-0.1-0.5-0.1-0.9c0-0.2,0-0.4,0-0.6
	c0-0.2,0-0.3,0.1-0.4s0.1-0.2,0.1-0.2c0.1,0,0.1-0.1,0.2-0.1h1.3v-0.9c0-0.7,0.1-1.3,0.2-1.9c0.1-0.5,0.4-1,0.7-1.3
	c0.3-0.4,0.7-0.6,1.1-0.8c0.5-0.2,1-0.3,1.7-0.3c0.3,0,0.6,0,0.9,0.1c0.3,0.1,0.5,0.1,0.7,0.2c0.2,0.1,0.3,0.1,0.3,0.2
	c0.1,0.1,0.1,0.1,0.1,0.2c0,0.1,0.1,0.2,0.1,0.4C411.4,210,411.4,210.1,411.4,210.4z M415.7,224.8c0,0.1,0,0.2-0.1,0.2
	c0,0.1-0.1,0.1-0.2,0.1c-0.1,0-0.3,0.1-0.5,0.1c-0.2,0-0.4,0-0.7,0c-0.3,0-0.5,0-0.7,0c-0.2,0-0.3-0.1-0.5-0.1
	c-0.1,0-0.2-0.1-0.2-0.1c0-0.1-0.1-0.1-0.1-0.2v-10.4c0-0.1,0-0.2,0.1-0.2c0.1-0.1,0.1-0.1,0.2-0.2c0.1,0,0.3-0.1,0.5-0.1
	c0.2,0,0.4,0,0.7,0c0.3,0,0.5,0,0.7,0c0.2,0,0.3,0.1,0.5,0.1c0.1,0,0.2,0.1,0.2,0.2c0.1,0.1,0.1,0.1,0.1,0.2V224.8z M415.9,210.8
	c0,0.6-0.1,1-0.4,1.2c-0.2,0.2-0.7,0.3-1.3,0.3s-1.1-0.1-1.3-0.3c-0.2-0.2-0.3-0.6-0.3-1.2c0-0.6,0.1-1,0.4-1.2
	c0.2-0.2,0.7-0.4,1.4-0.4c0.7,0,1.1,0.1,1.3,0.3C415.8,209.8,415.9,210.2,415.9,210.8z M426.5,223.1c0,0.2,0,0.4,0,0.5
	c0,0.1,0,0.2,0,0.3c0,0.1,0,0.2-0.1,0.2c0,0.1-0.1,0.1-0.2,0.2c-0.1,0.1-0.3,0.2-0.5,0.3c-0.2,0.1-0.5,0.2-0.8,0.3
	c-0.3,0.1-0.6,0.2-0.9,0.2s-0.7,0.1-1,0.1c-0.8,0-1.5-0.1-2.1-0.4c-0.6-0.3-1.2-0.6-1.6-1.1c-0.4-0.5-0.7-1.1-1-1.8
	c-0.2-0.7-0.3-1.5-0.3-2.4c0-1.1,0.1-2,0.4-2.7c0.3-0.8,0.6-1.4,1.1-1.9s1-0.9,1.7-1.1c0.6-0.2,1.4-0.4,2.1-0.4c0.3,0,0.6,0,0.9,0.1
	c0.3,0.1,0.6,0.1,0.8,0.2c0.3,0.1,0.5,0.2,0.7,0.3c0.2,0.1,0.4,0.2,0.4,0.3c0.1,0.1,0.1,0.2,0.2,0.2c0,0.1,0.1,0.1,0.1,0.2
	c0,0.1,0,0.2,0,0.3c0,0.1,0,0.3,0,0.5c0,0.5,0,0.8-0.1,1c-0.1,0.2-0.2,0.3-0.3,0.3c-0.1,0-0.3-0.1-0.4-0.2c-0.1-0.1-0.3-0.2-0.5-0.4
	c-0.2-0.1-0.4-0.3-0.7-0.4c-0.3-0.1-0.6-0.2-1-0.2c-0.8,0-1.3,0.3-1.8,0.9s-0.6,1.5-0.6,2.6c0,0.6,0,1.1,0.1,1.5
	c0.1,0.4,0.3,0.8,0.5,1.1c0.2,0.3,0.4,0.5,0.8,0.6c0.3,0.1,0.7,0.2,1,0.2c0.4,0,0.8-0.1,1-0.2c0.3-0.1,0.6-0.3,0.8-0.4
	c0.2-0.2,0.4-0.3,0.5-0.4c0.1-0.1,0.3-0.2,0.4-0.2c0.1,0,0.1,0,0.2,0.1c0.1,0,0.1,0.1,0.1,0.2c0,0.1,0.1,0.2,0.1,0.4
	C426.5,222.7,426.5,222.9,426.5,223.1z"/>
<path d="M350.3,253.4c0,0.2-0.1,0.3-0.2,0.5c-0.1,0.1-0.2,0.2-0.4,0.2c-0.2,0.1-0.4,0.1-0.6,0.1c-0.3,0-0.6,0-1,0
	c-0.4,0-0.8,0-1.1,0c-0.3,0-0.5-0.1-0.6-0.1c-0.2-0.1-0.3-0.1-0.3-0.2c-0.1-0.1-0.1-0.3-0.2-0.5l-2.4-9.6h0l-2.3,9.6
	c0,0.2-0.1,0.3-0.2,0.4c-0.1,0.1-0.2,0.2-0.3,0.3c-0.1,0.1-0.3,0.1-0.6,0.1c-0.3,0-0.6,0-1,0c-0.4,0-0.8,0-1.1,0
	c-0.3,0-0.5-0.1-0.6-0.1c-0.2-0.1-0.3-0.1-0.3-0.2c-0.1-0.1-0.1-0.3-0.2-0.5l-3.4-13.2c-0.1-0.3-0.1-0.5-0.1-0.7
	c0-0.2,0-0.3,0.1-0.4c0.1-0.1,0.3-0.1,0.5-0.2c0.2,0,0.5,0,0.9,0c0.4,0,0.7,0,0.9,0c0.2,0,0.4,0,0.5,0.1c0.1,0,0.2,0.1,0.2,0.2
	c0,0.1,0.1,0.2,0.1,0.3l2.7,11.6l0,0l2.8-11.5c0-0.2,0.1-0.3,0.1-0.4c0.1-0.1,0.1-0.2,0.2-0.2c0.1-0.1,0.3-0.1,0.5-0.1
	c0.2,0,0.5,0,0.9,0c0.4,0,0.7,0,0.9,0c0.2,0,0.4,0,0.5,0.1c0.1,0.1,0.2,0.1,0.3,0.2c0.1,0.1,0.1,0.2,0.1,0.4l2.9,11.5h0l2.7-11.6
	c0-0.1,0.1-0.2,0.1-0.3c0-0.1,0.1-0.2,0.2-0.2c0.1-0.1,0.3-0.1,0.5-0.1c0.2,0,0.5,0,0.9,0c0.3,0,0.6,0,0.8,0c0.2,0,0.3,0.1,0.4,0.2
	c0.1,0.1,0.1,0.2,0.1,0.4c0,0.2-0.1,0.4-0.1,0.7L350.3,253.4z M366.5,248.5c0,0.9-0.1,1.7-0.4,2.5c-0.2,0.7-0.6,1.4-1.1,1.9
	c-0.5,0.5-1.1,0.9-1.8,1.2c-0.7,0.3-1.6,0.4-2.5,0.4c-0.9,0-1.7-0.1-2.4-0.4c-0.7-0.3-1.3-0.6-1.7-1.1c-0.4-0.5-0.8-1.1-1-1.8
	c-0.2-0.7-0.3-1.5-0.3-2.5c0-0.9,0.1-1.7,0.4-2.5c0.2-0.7,0.6-1.4,1.1-1.9c0.5-0.5,1.1-0.9,1.8-1.2c0.7-0.3,1.6-0.4,2.5-0.4
	c0.9,0,1.7,0.1,2.4,0.4c0.7,0.2,1.3,0.6,1.7,1.1c0.4,0.5,0.8,1.1,1,1.8C366.4,246.7,366.5,247.5,366.5,248.5z M363.5,248.6
	c0-0.5,0-1-0.1-1.4c-0.1-0.4-0.2-0.8-0.4-1.1c-0.2-0.3-0.4-0.6-0.8-0.8c-0.3-0.2-0.7-0.3-1.2-0.3c-0.4,0-0.8,0.1-1.2,0.2
	c-0.3,0.2-0.6,0.4-0.8,0.7c-0.2,0.3-0.4,0.7-0.5,1.1c-0.1,0.4-0.2,0.9-0.2,1.5c0,0.5,0,1,0.1,1.4c0.1,0.4,0.2,0.8,0.4,1.1
	c0.2,0.3,0.5,0.6,0.8,0.8c0.3,0.2,0.7,0.2,1.2,0.2c0.4,0,0.8-0.1,1.2-0.2c0.3-0.2,0.6-0.4,0.8-0.7c0.2-0.3,0.4-0.7,0.5-1.1
	C363.4,249.6,363.5,249.1,363.5,248.6z M375.5,244.3c0,0.3,0,0.5,0,0.7c0,0.2,0,0.3-0.1,0.4c0,0.1-0.1,0.2-0.1,0.2c0,0-0.1,0-0.2,0
	c-0.1,0-0.1,0-0.2,0c-0.1,0-0.2-0.1-0.3-0.1c-0.1,0-0.2-0.1-0.3-0.1c-0.1,0-0.2,0-0.4,0c-0.2,0-0.3,0-0.5,0.1
	c-0.2,0.1-0.3,0.2-0.5,0.3c-0.2,0.1-0.4,0.3-0.5,0.6c-0.2,0.2-0.4,0.5-0.6,0.9v6.5c0,0.1,0,0.2-0.1,0.2c0,0.1-0.1,0.1-0.2,0.1
	c-0.1,0-0.3,0.1-0.5,0.1c-0.2,0-0.4,0-0.7,0c-0.3,0-0.5,0-0.7,0c-0.2,0-0.3-0.1-0.5-0.1c-0.1,0-0.2-0.1-0.2-0.1
	c0-0.1-0.1-0.1-0.1-0.2v-10.5c0-0.1,0-0.1,0-0.2c0-0.1,0.1-0.1,0.2-0.2c0.1,0,0.2-0.1,0.4-0.1c0.2,0,0.4,0,0.6,0c0.2,0,0.5,0,0.6,0
	c0.2,0,0.3,0.1,0.4,0.1c0.1,0,0.2,0.1,0.2,0.2c0,0.1,0.1,0.1,0.1,0.2v1.3c0.3-0.4,0.5-0.7,0.8-1c0.2-0.3,0.5-0.5,0.7-0.6
	c0.2-0.1,0.4-0.2,0.7-0.3c0.2-0.1,0.4-0.1,0.7-0.1c0.1,0,0.2,0,0.3,0c0.1,0,0.2,0,0.4,0.1c0.1,0,0.2,0.1,0.3,0.1
	c0.1,0,0.2,0.1,0.2,0.1c0,0,0.1,0.1,0.1,0.1c0,0,0,0.1,0,0.2c0,0.1,0,0.2,0,0.4C375.5,243.8,375.5,244,375.5,244.3z M387.1,253.8
	c0,0.1,0,0.2-0.1,0.2c0,0.1-0.1,0.1-0.2,0.1c-0.1,0-0.3,0.1-0.5,0.1c-0.2,0-0.4,0-0.8,0c-0.3,0-0.6,0-0.8,0c-0.2,0-0.4,0-0.5-0.1
	c-0.1,0-0.2-0.1-0.3-0.2c-0.1-0.1-0.1-0.1-0.2-0.2l-3.5-5.5v5.5c0,0.1,0,0.2-0.1,0.2c0,0.1-0.1,0.1-0.2,0.1c-0.1,0-0.3,0.1-0.5,0.1
	c-0.2,0-0.4,0-0.7,0c-0.3,0-0.5,0-0.7,0c-0.2,0-0.3-0.1-0.5-0.1c-0.1,0-0.2-0.1-0.2-0.1c0-0.1-0.1-0.1-0.1-0.2v-15.4
	c0-0.1,0-0.1,0.1-0.2c0.1-0.1,0.1-0.1,0.2-0.2c0.1-0.1,0.3-0.1,0.5-0.1c0.2,0,0.4,0,0.7,0c0.3,0,0.5,0,0.7,0c0.2,0,0.3,0.1,0.5,0.1
	c0.1,0,0.2,0.1,0.2,0.2c0.1,0.1,0.1,0.1,0.1,0.2v9.2l3.1-4.2c0.1-0.1,0.1-0.2,0.2-0.2c0.1-0.1,0.2-0.1,0.3-0.2
	c0.1,0,0.3-0.1,0.5-0.1c0.2,0,0.4,0,0.8,0c0.3,0,0.5,0,0.7,0c0.2,0,0.4,0.1,0.5,0.1c0.1,0,0.2,0.1,0.2,0.2c0.1,0.1,0.1,0.1,0.1,0.2
	c0,0.1,0,0.2-0.1,0.4c-0.1,0.1-0.1,0.3-0.3,0.4l-3,3.5l3.5,5.5c0.1,0.2,0.2,0.3,0.2,0.4C387,253.6,387.1,253.7,387.1,253.8z
	 M395.2,239.4c0,0.2,0,0.4,0,0.5c0,0.1,0,0.2-0.1,0.3c0,0.1-0.1,0.1-0.1,0.2c0,0-0.1,0-0.1,0c-0.1,0-0.1,0-0.2,0
	c-0.1,0-0.1-0.1-0.2-0.1c-0.1,0-0.2-0.1-0.3-0.1c-0.1,0-0.3,0-0.5,0c-0.2,0-0.4,0-0.6,0.1c-0.1,0.1-0.3,0.2-0.4,0.3
	c-0.1,0.1-0.2,0.3-0.2,0.6c0,0.2-0.1,0.5-0.1,0.8v1h1.9c0.1,0,0.1,0,0.2,0.1c0.1,0,0.1,0.1,0.1,0.2c0,0.1,0.1,0.2,0.1,0.4
	c0,0.2,0,0.3,0,0.6c0,0.4,0,0.8-0.1,0.9c-0.1,0.2-0.2,0.3-0.3,0.3h-1.9v8.5c0,0.1,0,0.2-0.1,0.2c0,0.1-0.1,0.1-0.2,0.1
	c-0.1,0-0.3,0.1-0.5,0.1c-0.2,0-0.4,0-0.7,0c-0.3,0-0.5,0-0.7,0c-0.2,0-0.3-0.1-0.5-0.1c-0.1,0-0.2-0.1-0.2-0.1
	c0-0.1-0.1-0.1-0.1-0.2v-8.5h-1.3c-0.1,0-0.3-0.1-0.3-0.3c-0.1-0.2-0.1-0.5-0.1-0.9c0-0.2,0-0.4,0-0.6c0-0.2,0-0.3,0.1-0.4
	c0-0.1,0.1-0.2,0.1-0.2c0.1,0,0.1-0.1,0.2-0.1h1.3v-0.9c0-0.7,0.1-1.3,0.2-1.9c0.1-0.5,0.4-1,0.7-1.3c0.3-0.4,0.7-0.6,1.1-0.8
	c0.5-0.2,1-0.3,1.7-0.3c0.3,0,0.6,0,0.9,0.1c0.3,0.1,0.5,0.1,0.7,0.2c0.2,0.1,0.3,0.1,0.3,0.2c0.1,0.1,0.1,0.1,0.1,0.2
	c0,0.1,0.1,0.2,0.1,0.4C395.2,239,395.2,239.1,395.2,239.4z M399.4,253.8c0,0.1,0,0.2-0.1,0.2c0,0.1-0.1,0.1-0.2,0.1
	c-0.1,0-0.3,0.1-0.5,0.1c-0.2,0-0.4,0-0.7,0c-0.3,0-0.5,0-0.7,0c-0.2,0-0.3-0.1-0.5-0.1c-0.1,0-0.2-0.1-0.2-0.1
	c0-0.1-0.1-0.1-0.1-0.2v-15.4c0-0.1,0-0.1,0.1-0.2c0.1-0.1,0.1-0.1,0.2-0.2c0.1-0.1,0.3-0.1,0.5-0.1c0.2,0,0.4,0,0.7,0
	c0.3,0,0.5,0,0.7,0c0.2,0,0.3,0.1,0.5,0.1c0.1,0,0.2,0.1,0.2,0.2c0.1,0.1,0.1,0.1,0.1,0.2V253.8z M412.9,248.5
	c0,0.9-0.1,1.7-0.4,2.5c-0.2,0.7-0.6,1.4-1.1,1.9c-0.5,0.5-1.1,0.9-1.8,1.2c-0.7,0.3-1.6,0.4-2.5,0.4c-0.9,0-1.7-0.1-2.4-0.4
	c-0.7-0.3-1.3-0.6-1.7-1.1c-0.4-0.5-0.8-1.1-1-1.8s-0.3-1.5-0.3-2.5c0-0.9,0.1-1.7,0.4-2.5c0.2-0.7,0.6-1.4,1.1-1.9
	c0.5-0.5,1.1-0.9,1.8-1.2c0.7-0.3,1.6-0.4,2.5-0.4c0.9,0,1.8,0.1,2.4,0.4s1.3,0.6,1.7,1.1c0.4,0.5,0.8,1.1,1,1.8
	S412.9,247.5,412.9,248.5z M409.9,248.6c0-0.5,0-1-0.1-1.4c-0.1-0.4-0.2-0.8-0.4-1.1c-0.2-0.3-0.4-0.6-0.8-0.8
	c-0.3-0.2-0.7-0.3-1.2-0.3c-0.4,0-0.8,0.1-1.2,0.2c-0.3,0.2-0.6,0.4-0.8,0.7c-0.2,0.3-0.4,0.7-0.5,1.1c-0.1,0.4-0.2,0.9-0.2,1.5
	c0,0.5,0,1,0.1,1.4c0.1,0.4,0.2,0.8,0.4,1.1c0.2,0.3,0.5,0.6,0.8,0.8c0.3,0.2,0.7,0.2,1.2,0.2c0.4,0,0.8-0.1,1.2-0.2
	c0.3-0.2,0.6-0.4,0.8-0.7c0.2-0.3,0.4-0.7,0.5-1.1C409.8,249.6,409.9,249.1,409.9,248.6z M431.2,243.3c0,0.1,0,0.2,0,0.3
	c0,0.1-0.1,0.3-0.1,0.5l-2.8,9.5c0,0.1-0.1,0.2-0.1,0.3c-0.1,0.1-0.2,0.1-0.3,0.2c-0.1,0.1-0.3,0.1-0.5,0.1c-0.2,0-0.6,0-0.9,0
	c-0.4,0-0.7,0-0.9,0c-0.2,0-0.4-0.1-0.6-0.1c-0.1-0.1-0.2-0.1-0.3-0.2c-0.1-0.1-0.1-0.2-0.1-0.3l-1.8-6.4l0-0.1l0,0.1l-1.6,6.4
	c0,0.1-0.1,0.2-0.1,0.3c-0.1,0.1-0.2,0.1-0.3,0.2c-0.1,0.1-0.3,0.1-0.6,0.1c-0.2,0-0.6,0-0.9,0c-0.4,0-0.7,0-0.9,0
	c-0.2,0-0.4-0.1-0.6-0.1c-0.1-0.1-0.2-0.1-0.3-0.2c-0.1-0.1-0.1-0.2-0.1-0.3l-2.8-9.5c-0.1-0.2-0.1-0.4-0.1-0.5c0-0.1,0-0.2,0-0.3
	c0-0.1,0-0.2,0.1-0.2c0.1-0.1,0.1-0.1,0.2-0.1c0.1,0,0.3-0.1,0.5-0.1c0.2,0,0.4,0,0.7,0c0.3,0,0.6,0,0.8,0c0.2,0,0.3,0,0.5,0.1
	c0.1,0,0.2,0.1,0.2,0.2c0.1,0.1,0.1,0.1,0.1,0.2l2.1,7.7l0,0.1l0-0.1l1.9-7.7c0-0.1,0.1-0.2,0.1-0.2c0.1-0.1,0.1-0.1,0.2-0.2
	c0.1,0,0.2-0.1,0.4-0.1c0.2,0,0.4,0,0.7,0c0.3,0,0.5,0,0.7,0c0.2,0,0.3,0.1,0.4,0.1c0.1,0,0.2,0.1,0.2,0.1c0,0.1,0.1,0.1,0.1,0.2
	l2.1,7.7l0,0.1l0-0.1l2-7.7c0-0.1,0.1-0.2,0.1-0.2c0.1-0.1,0.1-0.1,0.2-0.2c0.1,0,0.3-0.1,0.5-0.1c0.2,0,0.4,0,0.7,0
	c0.3,0,0.5,0,0.7,0c0.2,0,0.3,0,0.4,0.1c0.1,0,0.2,0.1,0.2,0.1C431.2,243.2,431.2,243.2,431.2,243.3z"/>
</svg>
